<?xml version="1.0" encoding="utf-8"?>
<!-- Generator: Adobe Illustrator 29.5.0, SVG Export Plug-In . SVG Version: 9.03 Build 0)  -->
<svg version="1.0" id="Layer_1" xmlns="http://www.w3.org/2000/svg" xmlns:xlink="http://www.w3.org/1999/xlink" x="0px" y="0px"
	 viewBox="0 0 681 339" style="enable-background:new 0 0 681 339;" xml:space="preserve">
<g>
	<g transform="translate(62.428016, 156.656357)">
		<g>
			<path d="M74.39,51.93c-0.29,0.88-0.83,1.56-1.62,2.06c-0.78,0.39-1.66,0.44-2.65,0.15c-0.78-0.29-1.41-0.83-1.9-1.62
				c-0.5-0.97-0.6-1.85-0.29-2.65c0.48-1.57,0.8-3.96,0.94-7.19c0.15-3.23,0.03-7.26-0.35-12.06c-0.39-6.76-1.27-15.09-2.65-24.98
				c-0.1,0-0.15,0-0.15,0s-0.05,0-0.15,0c-1.86,0.68-4.12,1.12-6.77,1.31c-0.68,0.1-1.58,0.12-2.71,0.08
				c-1.12-0.05-2.38-0.13-3.75-0.23H52.2c-2.56-0.19-4.42-0.19-5.58,0c-0.99,0-1.85,0.08-2.58,0.23c-0.74,0.14-1.45,0.31-2.12,0.5
				c-0.29,0.1-0.69,0.15-1.19,0.15c-0.39,1.08-0.73,2.14-1.02,3.17c-0.29,1.03-0.58,2.08-0.88,3.17c-1.08,3.72-1.95,7.35-2.58,10.88
				c-0.64,3.53-1.06,6.86-1.25,10c-0.2,1.07-0.58,1.85-1.17,2.33c-0.79,0.6-1.58,0.85-2.35,0.75c-0.99,0-1.77-0.34-2.35-1.04
				c-0.68-0.68-0.97-1.51-0.88-2.5c0.39-6.86,1.71-14.26,3.96-22.19c0.79-2.54,1.77-5.55,2.94-9.02c1.18-3.48,2.55-7.48,4.12-12
				c0.09-0.09,0.24-0.48,0.44-1.17c1.28-3.43,2.35-6.42,3.23-8.96c0.89-2.55,1.62-4.71,2.21-6.48c0.98-2.84,1.82-5.57,2.5-8.17
				c0.68-2.59,1.22-5.07,1.62-7.42c0.09-0.48,0.19-1.05,0.29-1.69c0.09-0.64,0.19-1.34,0.29-2.12c0-0.19,0.02-0.48,0.06-0.88
				c0.05-0.4,0.13-0.94,0.23-1.62c0.19-1.38,0.34-2.21,0.44-2.5c0.19-1.38,0.39-2.65,0.58-3.81c0.19-1.18,0.4-2.17,0.6-2.96
				c0.48-2.54,1.07-4.3,1.75-5.29c0.39-0.68,0.88-1.17,1.48-1.46c1.07-0.69,2.15-0.79,3.23-0.29c0.88,0.2,1.51,0.64,1.92,1.31
				c0.19,0.2,0.36,0.42,0.5,0.67c0.15,0.25,0.28,0.52,0.38,0.81c0.68,1.57,1.42,4.46,2.21,8.67c0.09,0.2,0.21,0.81,0.35,1.83
				c0.15,1.03,0.42,2.52,0.81,4.48c0.79,3.82,1.23,6.32,1.33,7.5c0.68,3.62,1.29,7.14,1.83,10.52c0.54,3.38,1.05,6.58,1.54,9.62
				c0.48,3.03,0.95,5.92,1.4,8.67c0.44,2.74,0.86,5.39,1.25,7.94c1.76,12.74,2.94,23.32,3.52,31.75
				C75.96,40.76,75.67,48.01,74.39,51.93z M43.22,0.34c0.5-0.09,1.01-0.17,1.54-0.23c0.54-0.05,1.06-0.08,1.56-0.08
				c1.36-0.19,3.42-0.19,6.17,0h0.15c1.38,0.11,2.53,0.2,3.46,0.25c0.93,0.04,1.73,0.02,2.42-0.08c1.76-0.11,3.33-0.41,4.71-0.9
				c0.78-0.19,1.36-0.24,1.75-0.15C64.58-3.39,64.19-6,63.81-8.7c-0.39-2.69-0.83-5.46-1.31-8.31c-0.5-3.04-1.02-6.25-1.56-9.62
				c-0.53-3.38-1.14-6.87-1.83-10.5c-0.1-0.5-0.32-1.63-0.67-3.4c-0.33-1.76-0.74-4.21-1.23-7.33c-0.1,0.2-0.15,0.42-0.15,0.67
				c0,0.24-0.06,0.5-0.17,0.79c-0.1,0.29-0.15,0.59-0.15,0.9c0,0.29,0,0.54,0,0.73c-0.1,0.29-0.15,0.58-0.15,0.88
				c-0.1,0.99-0.22,1.8-0.38,2.44c-0.14,0.62-0.26,1.19-0.35,1.69c-0.49,2.45-1.08,5.04-1.77,7.79c-0.68,2.74-1.52,5.62-2.5,8.67
				c-0.58,1.77-1.34,3.97-2.27,6.62c-0.93,2.64-2.04,5.68-3.31,9.1c-0.2,0.58-0.34,0.97-0.44,1.17c-0.39,1.28-0.78,2.48-1.17,3.6
				C44.02-1.7,43.62-0.64,43.22,0.34z"/>
		</g>
	</g>
</g>
<g>
	<g transform="translate(99.908047, 156.656357)">
		<g>
			<path d="M77.63,53.24c-3.74,1.38-7.27,1.18-10.58-0.58C61.76,49.92,57,43.8,52.78,34.28c-3.03-6.96-5.82-15.43-8.38-25.42
				c-1.96-7.65-3.14-13.73-3.52-18.23c-0.29-2.84-0.29-5.98,0-9.42c0.09-0.97,0.21-2.19,0.35-3.67c0.15-1.47,0.38-3.19,0.67-5.15
				v-0.15c0.19-1.38,0.34-2.59,0.44-3.67c0.09-1.08,0.19-1.96,0.29-2.65c0.21-1.67,0.36-4.17,0.46-7.5
				c0.09-0.98,0.15-1.84,0.15-2.56c0-0.73,0.05-1.35,0.15-1.85c0.39-7.73,1.56-13.81,3.52-18.23c0.48-0.78,1.12-1.36,1.92-1.75
				c0.88-0.29,1.76-0.29,2.65,0c0.78,0.49,1.36,1.12,1.75,1.92c0.3,0.97,0.26,1.85-0.15,2.62c-0.78,1.88-1.42,4.14-1.92,6.79
				c-0.49,2.64-0.83,5.67-1.02,9.08c-0.1,0.41-0.15,0.97-0.15,1.71c0,0.72-0.05,1.58-0.15,2.56c-0.2,3.62-0.34,6.22-0.44,7.79
				c-0.1,1.57-0.39,3.77-0.88,6.6v0.15c-0.5,3.93-0.8,6.78-0.9,8.54c-0.29,2.93-0.29,5.62,0,8.08c0.19,2.16,0.58,4.66,1.17,7.5
				c0.59,2.83,1.34,6.11,2.23,9.83c2.34,9.52,4.99,17.6,7.94,24.25c3.72,8.24,7.44,13.29,11.17,15.15c1.67,0.88,3.38,0.97,5.15,0.29
				c2.44-0.78,4.89-2.83,7.33-6.17c6.18-7.65,10.69-23.57,13.52-47.77c1.76-16.07,2.65-34.15,2.65-54.23c0-0.98,0.34-1.82,1.04-2.5
				c0.78-0.59,1.61-0.9,2.5-0.9c0.88,0,1.66,0.3,2.35,0.9c0.58,0.68,0.88,1.52,0.88,2.5c0,20.47-0.89,38.79-2.65,54.96
				c-1.38,11.57-3.14,21.37-5.29,29.4c-2.45,9.71-5.68,17.01-9.71,21.9C84.58,49.14,81.16,51.88,77.63,53.24z"/>
		</g>
	</g>
</g>
<g>
	<g transform="translate(150.50626, 156.656357)">
		<g>
			<path d="M79.35,51.34c-0.99,0-1.77-0.34-2.35-1.04c-0.68-0.68-1.02-1.46-1.02-2.35c0-0.97-0.08-2.24-0.23-3.81
				c-0.16-1.57-0.33-3.43-0.52-5.58c-0.1-1.67-0.39-3.88-0.88-6.62c0-0.09,0-0.31,0-0.65c0-0.34-0.05-0.76-0.15-1.25
				c-0.1-0.5-0.18-1.01-0.23-1.54c-0.04-0.54-0.11-1.11-0.21-1.71c-0.1-0.48-0.18-0.92-0.23-1.31c-0.04-0.39-0.06-0.68-0.06-0.88
				c-0.2-1.67-0.4-3.19-0.6-4.56c-0.2-1.38-0.39-2.65-0.58-3.81c-0.39-3.83-0.71-7.29-0.96-10.38c-0.24-3.08-0.41-5.84-0.5-8.29
				c-0.2-6.96,0.09-15.68,0.88-26.17c0.09-0.98,0.19-2.16,0.29-3.52c0.09-1.38,0.19-2.99,0.29-4.85c0.39-4.9,0.71-9.19,0.96-12.85
				c0.25-3.68,0.42-6.65,0.52-8.92c-2.25-0.19-4.43-0.31-6.54-0.35c-2.11-0.05-4.1,0.02-5.96,0.21c-0.97,0.1-1.81-0.19-2.5-0.88
				c-0.58-0.48-0.97-1.27-1.17-2.35c-0.1-0.88,0.19-1.66,0.88-2.35c0.48-0.58,1.22-0.97,2.21-1.17c3.43-0.29,7.15-0.29,11.17,0
				c1.38,0.1,2.94,0.24,4.71,0.44c1.76,0.2,3.72,0.44,5.88,0.73c0.19,0,0.41,0,0.65,0c0.25,0,0.57,0.05,0.98,0.15
				c3.72,0.5,7.03,0.9,9.92,1.19c2.89,0.29,5.26,0.44,7.12,0.44c0.98,0,1.82,0.29,2.5,0.88c0.58,0.7,0.88,1.48,0.88,2.35
				c0,0.89-0.29,1.72-0.88,2.5c-0.68,0.7-1.52,1.04-2.5,1.04c-2.06,0-4.58-0.15-7.56-0.44c-2.99-0.3-6.49-0.7-10.52-1.19
				c-0.39-0.09-0.68-0.15-0.88-0.15c-0.2,0-0.39-0.05-0.58-0.15c-0.2,0-0.4,0-0.6,0c-0.2,0-0.39,0-0.58,0
				c-0.1,4.41-0.54,11.56-1.31,21.46c-0.1,1.86-0.2,3.45-0.29,4.77c-0.1,1.32-0.2,2.47-0.29,3.46c-0.7,10.29-0.99,18.81-0.9,25.56
				c0.09,2.27,0.27,4.92,0.52,7.96c0.25,3.03,0.57,6.41,0.96,10.12c0.19,1.08,0.36,2.31,0.5,3.69c0.15,1.36,0.32,2.88,0.52,4.54
				c0.19,0.41,0.34,1.14,0.44,2.21c0.09,0.58,0.17,1.15,0.21,1.69c0.05,0.54,0.13,1.06,0.23,1.54c0.11,0.5,0.17,0.93,0.17,1.27
				c0,0.33,0,0.55,0,0.65c0.19,1.38,0.34,2.62,0.44,3.75c0.09,1.12,0.19,2.08,0.29,2.88c0.19,0.88,0.31,1.71,0.35,2.5
				c0.05,0.78,0.13,1.51,0.23,2.19c0.09,0.1,0.15,0.18,0.15,0.23c0,0.04,0.05,0.11,0.15,0.21c0,0.31,0.05,0.56,0.15,0.75
				c0,0.29,0.05,0.49,0.15,0.58c0,0.1,0,0.27,0,0.52c0,0.24,0,0.5,0,0.79c0,0.6,0.05,0.95,0.15,1.04c0.19,1.18-0.05,2.16-0.73,2.94
				c-0.1,0.1-0.15,0.2-0.15,0.29C81.51,50.8,80.53,51.34,79.35,51.34z"/>
		</g>
	</g>
</g>
<g>
	<g transform="translate(187.655591, 156.656357)">
		<g>
			<path d="M88.51,51.64c-6.38-2.36-11.23-9.91-14.56-22.65c-2.93-11.17-4.25-23.76-3.96-37.77c0.29-14.59,2.44-26.8,6.46-36.6
				c1.08-2.73,2.33-5.13,3.75-7.19c1.42-2.05,2.91-3.86,4.48-5.44c3.23-2.94,6.71-4.61,10.44-5c0.48-0.79,1.17-1.33,2.06-1.62
				c0.88-0.19,1.71-0.05,2.5,0.44c7.54,4.22,12.83,13.34,15.88,27.35c2.64,12.14,3.32,25.56,2.06,40.27
				c-1.38,14.89-4.22,26.74-8.54,35.56c-2.54,5.1-5.33,8.72-8.38,10.88C96.87,52.71,92.81,53.3,88.51,51.64z M90.86,45.3
				c1.96,0.7,3.96,0.35,6.02-1.02c2.15-1.47,4.21-4.21,6.17-8.23c4.01-8.33,6.61-19.4,7.79-33.21c1.18-14.32,0.54-27.06-1.92-38.23
				c-2.25-10.29-5.62-17.4-10.12-21.31c-0.21,0.1-0.41,0.18-0.6,0.23c-0.2,0.04-0.39,0.06-0.58,0.06c-6.17,0-11.17,4.56-15,13.67
				c-3.62,8.72-5.58,20.09-5.88,34.1c-0.1,6.67,0.17,12.99,0.81,18.98c0.64,5.97,1.65,11.66,3.02,17.04
				C83.3,37.78,86.74,43.75,90.86,45.3z"/>
		</g>
	</g>
</g>
<g>
	<g transform="translate(225.797054, 156.656357)">
		<g>
			<path d="M119.43,51.64c-6.07,1.86-12.24-0.09-18.5-5.88c-0.1-0.09-0.18-0.19-0.23-0.29c-0.06-0.11-0.18-0.21-0.38-0.31
				c-0.29-0.19-0.54-0.39-0.73-0.58c-1.28-1.28-2.41-2.4-3.4-3.38c-0.97-0.98-1.8-1.86-2.48-2.65c-2.16-2.65-3.77-5.25-4.85-7.79
				C84.16,19.19,82.15,5.67,82.85-9.8c0.58-14.4,3.32-27.68,8.23-39.83c2.25-5.58,5.33-9.9,9.25-12.94
				c3.93-3.14,7.9-4.85,11.92-5.15c4.11-0.19,8.07,1.08,11.9,3.83c3.82,2.83,6.86,6.99,9.12,12.48c0.39,0.79,0.44,1.68,0.15,2.65
				c-0.5,0.89-1.14,1.48-1.92,1.77c-0.88,0.39-1.76,0.39-2.65,0c-0.88-0.29-1.47-0.88-1.77-1.77c-1.57-4.01-3.68-7.09-6.31-9.25
				c-2.54-2.05-5.33-2.98-8.38-2.79c-2.95,0.1-5.79,1.37-8.52,3.81c-2.85,2.56-5.06,5.84-6.62,9.85
				c-2.25,5.68-4.02,11.66-5.29,17.94c-1.28,6.27-2.11,12.83-2.5,19.69c-0.58,14.5,1.28,27.04,5.58,37.62
				c0.89,1.86,2.17,3.87,3.83,6.02c0.58,0.7,1.31,1.51,2.19,2.44c0.89,0.93,1.97,1.93,3.25,3c0.09,0.1,0.19,0.18,0.29,0.23
				c0.09,0.04,0.19,0.16,0.29,0.35l0.58,0.6c4.32,4.11,8.29,5.58,11.92,4.4c3.43-1.07,6.36-3.96,8.81-8.67
				c2.44-4.4,3.96-9.55,4.56-15.44c0.58-5.48,0.04-9.65-1.62-12.48c-0.58-1.08-2.64-1.38-6.17-0.9c-0.29,0-0.59,0.05-0.9,0.15
				c-1.27,0.1-2.34,0.2-3.23,0.31c-0.88,0.1-1.61,0.1-2.21,0c-2.45-0.21-4.35-0.94-5.73-2.21c-0.68-0.69-1.02-1.53-1.02-2.5
				c0-0.89,0.34-1.67,1.02-2.35c0.59-0.69,1.38-1.04,2.35-1.04c0.98,0,1.77,0.35,2.35,1.04c0.09,0,0.19,0.05,0.29,0.15
				c0.19,0.1,0.54,0.15,1.04,0.15c0.39,0,0.95-0.02,1.69-0.06c0.73-0.05,1.59-0.13,2.56-0.23c0.29-0.09,0.64-0.15,1.04-0.15
				c2.64-0.29,4.74-0.29,6.31,0c2.84,0.49,4.95,1.85,6.31,4.1c2.36,4.03,3.24,9.37,2.65,16.02c-0.58,6.86-2.4,13.08-5.44,18.67
				C128.74,46,124.52,49.97,119.43,51.64z"/>
		</g>
	</g>
</g>
<g>
	<g transform="translate(269.009411, 156.656357)">
		<g>
			<path d="M132.52,55.01c-0.88-0.49-1.61-1.18-2.21-2.06c-0.1-0.2-0.24-0.46-0.44-0.79c-0.2-0.34-0.39-0.71-0.58-1.1
				c-0.39-0.79-0.79-1.65-1.19-2.58c-0.39-0.93-0.83-2.03-1.31-3.31c-0.79-2.15-1.68-4.59-2.67-7.33c-0.97-2.75-1.99-5.79-3.06-9.13
				c-1.67-5.29-3.12-10.04-4.35-14.25c-1.22-4.21-2.22-7.83-3-10.88c-2.45,0.39-5.09,0.68-7.94,0.88c-0.1,1.47-0.18,2.95-0.23,4.42
				c-0.04,1.47-0.06,2.94-0.06,4.4c0,0.1,0,0.37,0,0.81c0,0.45-0.05,1.06-0.15,1.83c-0.1,0.79-0.2,1.66-0.29,2.58
				c-0.1,0.93-0.2,1.89-0.29,2.85l-0.15,2.79c-0.11,1.18-0.2,2.29-0.25,3.31c-0.04,1.03-0.11,2.04-0.21,3.02
				c-0.1,2.74-0.2,5.14-0.29,7.21c-0.1,2.06-0.1,3.77,0,5.12c0,0.41,0,0.78,0,1.12c0,0.33,0.05,0.6,0.15,0.79
				c0.09,0.1,0.19,0.2,0.29,0.29c0.09,0.1,0.2,0.2,0.31,0.29c0.58,0.79,0.82,1.62,0.73,2.5c-0.1,0.99-0.54,1.72-1.33,2.21
				c-1.46,1.28-3.02,1.38-4.69,0.29c-0.79-0.68-1.33-1.56-1.62-2.65c-0.39-0.88-0.58-2.39-0.58-4.54c-0.1-1.57-0.1-3.43,0-5.58
				c0.09-2.17,0.19-4.67,0.29-7.5c0.09-0.98,0.17-1.99,0.21-3.02c0.05-1.03,0.13-2.13,0.23-3.31c0-0.19,0.02-0.53,0.06-1.02
				c0.05-0.48,0.13-1.22,0.23-2.21c0.09-0.88,0.17-1.73,0.21-2.56c0.05-0.83,0.13-1.65,0.23-2.44c0.09-0.78,0.15-1.34,0.15-1.69
				c0-0.34,0-0.57,0-0.67C98.8,9.4,99,4.96,99.29-0.18c0.3-5.14,0.75-10.99,1.33-17.56c0.09-0.39,0.15-0.85,0.15-1.4
				c0-0.54,0.05-1.2,0.15-1.98c0.39-4.22,0.73-7.88,1.02-10.96c0.3-3.08,0.51-5.7,0.6-7.85c0.19-3.43,0.36-6.71,0.5-9.85
				c0.15-3.14,0.23-6.07,0.23-8.81c0-0.69,0.15-1.23,0.44-1.62c-0.1-0.68,0.09-1.46,0.58-2.35c0.4-0.68,1.04-1.17,1.92-1.46
				c9.21-2.46,17.15-0.16,23.81,6.9c5.68,5.97,8.92,13.86,9.71,23.67c0.58,10.2-1.82,18.72-7.21,25.58
				c-3.14,4.11-7.26,7.29-12.35,9.54c0.69,2.85,1.65,6.35,2.88,10.52c1.22,4.16,2.71,8.93,4.48,14.31c1.08,3.33,2.09,6.35,3.02,9.04
				c0.93,2.7,1.78,5.12,2.56,7.27c0.48,1.08,0.9,2.07,1.25,2.96c0.34,0.88,0.67,1.6,0.96,2.19c0.19,0.31,0.34,0.56,0.44,0.75
				c0.09,0.2,0.19,0.39,0.29,0.58c1.38,0.97,1.67,2.29,0.9,3.96c-0.31,0.69-0.9,1.28-1.77,1.77C134.28,55.3,133.4,55.3,132.52,55.01
				z M106.21-2.3c9.11-0.3,16.11-3.54,21.02-9.71c4.3-5.58,6.21-12.59,5.73-21.02c-0.58-8.12-3.18-14.64-7.79-19.54
				c-4.21-4.51-9.25-6.28-15.13-5.29c0,2.74-0.08,5.62-0.23,8.67c-0.16,3.04-0.33,6.28-0.52,9.71c-0.1,2.16-0.29,4.8-0.58,7.94
				c-0.29,3.12-0.64,6.8-1.02,11.02c-0.1,0.78-0.15,1.44-0.15,1.98s-0.05,1.01-0.15,1.4c-0.21,3.04-0.41,5.79-0.6,8.23
				C106.59-6.48,106.4-4.27,106.21-2.3z"/>
		</g>
	</g>
</g>
<g>
	<g transform="translate(303.072108, 156.656357)">
		<g>
			<path d="M145.35,53.24c-3.74,1.38-7.27,1.18-10.58-0.58c-5.29-2.73-10.05-8.86-14.27-18.38c-3.03-6.96-5.82-15.43-8.38-25.42
				c-1.96-7.65-3.14-13.73-3.52-18.23c-0.29-2.84-0.29-5.98,0-9.42c0.09-0.97,0.21-2.19,0.35-3.67c0.15-1.47,0.38-3.19,0.67-5.15
				v-0.15c0.19-1.38,0.34-2.59,0.44-3.67c0.09-1.08,0.19-1.96,0.29-2.65c0.21-1.67,0.36-4.17,0.46-7.5
				c0.09-0.98,0.15-1.84,0.15-2.56c0-0.73,0.05-1.35,0.15-1.85c0.39-7.73,1.56-13.81,3.52-18.23c0.48-0.78,1.12-1.36,1.92-1.75
				c0.88-0.29,1.76-0.29,2.65,0c0.78,0.49,1.36,1.12,1.75,1.92c0.3,0.97,0.26,1.85-0.15,2.62c-0.78,1.88-1.42,4.14-1.92,6.79
				c-0.49,2.64-0.83,5.67-1.02,9.08c-0.1,0.41-0.15,0.97-0.15,1.71c0,0.72-0.05,1.58-0.15,2.56c-0.2,3.62-0.34,6.22-0.44,7.79
				c-0.1,1.57-0.39,3.77-0.88,6.6v0.15c-0.5,3.93-0.8,6.78-0.9,8.54c-0.29,2.93-0.29,5.62,0,8.08c0.19,2.16,0.58,4.66,1.17,7.5
				c0.59,2.83,1.34,6.11,2.23,9.83c2.34,9.52,4.99,17.6,7.94,24.25c3.72,8.24,7.44,13.29,11.17,15.15c1.67,0.88,3.38,0.97,5.15,0.29
				c2.44-0.78,4.89-2.83,7.33-6.17c6.18-7.65,10.69-23.57,13.52-47.77c1.76-16.07,2.65-34.15,2.65-54.23c0-0.98,0.34-1.82,1.04-2.5
				c0.78-0.59,1.61-0.9,2.5-0.9c0.88,0,1.66,0.3,2.35,0.9c0.58,0.68,0.88,1.52,0.88,2.5c0,20.47-0.89,38.79-2.65,54.96
				c-1.38,11.57-3.14,21.37-5.29,29.4c-2.45,9.71-5.68,17.01-9.71,21.9C152.3,49.14,148.88,51.88,145.35,53.24z"/>
		</g>
	</g>
</g>
<g>
	<g transform="translate(353.670337, 156.656357)">
		<g>
			<path d="M140.91,53.84c-1.18,0.48-2.31,0.33-3.4-0.46c-0.29-0.2-0.64-0.58-1.02-1.17c-0.68-0.78-1.22-2.09-1.62-3.96
				c-0.68-2.26-1.27-4.71-1.75-7.35c-0.41-1.96-0.78-4.41-1.12-7.35c-0.33-2.94-0.6-6.38-0.79-10.29c-0.1-3.53-0.24-6.17-0.44-7.94
				c-0.1-0.19-0.15-0.44-0.15-0.73c0-0.29,0-0.53,0-0.73c-0.1-0.79-0.4-3.24-0.9-7.35c-0.97-0.19-1.7-0.59-2.19-1.19
				c-0.6-0.58-0.9-1.26-0.9-2.04c-0.2-1.76,0.59-2.9,2.35-3.4c-0.2-2.15-0.37-3.91-0.52-5.27c-0.14-1.38-0.26-2.31-0.35-2.81
				c-0.29-2.73-0.56-5.35-0.81-7.85s-0.47-4.82-0.67-6.98c-1.77-19.89-1.77-32.97,0-39.25c0.09-0.97,0.64-1.71,1.63-2.21
				c0.58-0.39,1.42-0.48,2.5-0.29c0.19,0.1,0.39,0.2,0.58,0.29c0.19,0.1,0.39,0.2,0.58,0.29c4.12-0.48,9.03-0.84,14.71-1.08
				c5.68-0.25,12.09-0.38,19.25-0.38c0.97,0,1.8,0.29,2.5,0.88c0.58,0.7,0.88,1.48,0.88,2.35c0,0.89-0.29,1.72-0.88,2.5
				c-0.7,0.68-1.53,1.02-2.5,1.02c-7.16,0-13.5,0.12-19.04,0.38c-5.53,0.25-10.31,0.62-14.33,1.1c-0.88,6.57-0.58,17.84,0.9,33.81
				c0.19,2.16,0.41,4.46,0.65,6.92c0.25,2.45,0.52,5.04,0.81,7.77c0.09,0.99,0.4,3.87,0.9,8.67c0.09,0,0.17,0,0.21,0
				c0.05,0,0.13,0,0.23,0c1.38,0.1,2.59,0.15,3.67,0.15c1.08,0,2.01,0,2.79,0c6.18-0.19,10.05-0.68,11.62-1.46
				c0.78-0.48,1.61-0.63,2.5-0.44c0.88,0.1,1.55,0.58,2.04,1.46c0.5,0.89,0.65,1.77,0.44,2.65c-0.2,0.89-0.73,1.58-1.6,2.06
				c-2.46,1.47-7.46,2.31-15,2.5c-0.78,0-1.68,0-2.71,0c-1.03,0-2.18-0.05-3.46-0.15c0.19,1.86,0.36,3.33,0.5,4.42
				c0.15,1.07,0.23,1.8,0.23,2.19c0.09,0.2,0.15,0.45,0.15,0.75c0,0.29,0,0.54,0,0.73c0.09,0.97,0.19,2.15,0.29,3.52
				c0.09,1.38,0.19,2.99,0.29,4.85c0.4,7.35,0.99,12.89,1.77,16.6c0.19,1.18,0.42,2.33,0.67,3.46s0.57,2.23,0.96,3.31
				c0,0.2,0.05,0.34,0.15,0.44c1.67,0.68,2.3,1.95,1.92,3.81c-0.11,0.21-0.2,0.44-0.25,0.69c-0.04,0.24-0.11,0.45-0.21,0.65
				C142.56,52.9,141.88,53.54,140.91,53.84z"/>
		</g>
	</g>
</g>
<g>
	<g transform="translate(388.614905, 156.656357)">
		<g>
			<path d="M152.56,53.84c-1.18,0.48-2.31,0.33-3.4-0.46c-0.29-0.2-0.64-0.58-1.02-1.17c-0.68-0.78-1.22-2.09-1.62-3.96
				c-0.68-2.26-1.27-4.71-1.75-7.35c-0.41-1.96-0.78-4.41-1.12-7.35c-0.33-2.94-0.6-6.38-0.79-10.29c-0.1-3.53-0.24-6.17-0.44-7.94
				c-0.1-0.19-0.15-0.44-0.15-0.73c0-0.29,0-0.53,0-0.73c-0.1-0.79-0.4-3.24-0.9-7.35c-0.97-0.19-1.7-0.59-2.19-1.19
				c-0.6-0.58-0.9-1.26-0.9-2.04c-0.2-1.76,0.59-2.9,2.35-3.4c-0.2-2.15-0.37-3.91-0.52-5.27c-0.14-1.38-0.26-2.31-0.35-2.81
				c-0.29-2.73-0.56-5.35-0.81-7.85s-0.47-4.82-0.67-6.98c-1.77-19.89-1.77-32.97,0-39.25c0.09-0.97,0.64-1.71,1.62-2.21
				c0.58-0.39,1.42-0.48,2.5-0.29c0.19,0.1,0.39,0.2,0.58,0.29c0.19,0.1,0.39,0.2,0.58,0.29c4.12-0.48,9.03-0.84,14.71-1.08
				c5.68-0.25,12.09-0.38,19.25-0.38c0.97,0,1.8,0.29,2.5,0.88c0.58,0.7,0.88,1.48,0.88,2.35c0,0.89-0.29,1.72-0.88,2.5
				c-0.7,0.68-1.53,1.02-2.5,1.02c-7.16,0-13.5,0.12-19.04,0.38c-5.53,0.25-10.31,0.62-14.33,1.1c-0.88,6.57-0.58,17.84,0.9,33.81
				c0.19,2.16,0.41,4.46,0.65,6.92c0.25,2.45,0.52,5.04,0.81,7.77c0.09,0.99,0.4,3.87,0.9,8.67c0.09,0,0.17,0,0.21,0
				c0.05,0,0.13,0,0.23,0c1.38,0.1,2.59,0.15,3.67,0.15c1.08,0,2.01,0,2.79,0c6.18-0.19,10.05-0.68,11.62-1.46
				c0.78-0.48,1.61-0.63,2.5-0.44c0.88,0.1,1.55,0.58,2.04,1.46c0.5,0.89,0.65,1.77,0.44,2.65c-0.2,0.89-0.73,1.58-1.6,2.06
				c-2.46,1.47-7.46,2.31-15,2.5c-0.78,0-1.68,0-2.71,0c-1.03,0-2.18-0.05-3.46-0.15c0.19,1.86,0.36,3.33,0.5,4.42
				c0.15,1.07,0.23,1.8,0.23,2.19c0.09,0.2,0.15,0.45,0.15,0.75c0,0.29,0,0.54,0,0.73c0.09,0.97,0.19,2.15,0.29,3.52
				c0.09,1.38,0.19,2.99,0.29,4.85c0.4,7.35,0.99,12.89,1.77,16.6c0.19,1.18,0.42,2.33,0.67,3.46s0.57,2.23,0.96,3.31
				c0,0.2,0.05,0.34,0.15,0.44c1.67,0.68,2.3,1.95,1.92,3.81c-0.11,0.21-0.2,0.44-0.25,0.69c-0.04,0.24-0.11,0.45-0.21,0.65
				C154.21,52.9,153.52,53.54,152.56,53.84z"/>
		</g>
	</g>
</g>
<g>
	<g transform="translate(423.559473, 156.656357)">
		<g>
			<path d="M178.02,49.43c-1.96-2.54-3.19-6.26-3.69-11.17c-0.1-1.57-0.15-3.38-0.15-5.44c0-2.05,0.09-4.46,0.29-7.21
				c0.09-0.39,0.15-0.8,0.15-1.25c0-0.44,0-0.91,0-1.4c0.21-1.96,0.36-3.67,0.46-5.15c0.09-1.47,0.15-2.59,0.15-3.38
				c0.09-1.38,0.11-2.62,0.06-3.75c-0.04-1.12-0.16-2.08-0.35-2.88c-0.1-0.58-0.22-1.17-0.38-1.75c-0.16-0.59-0.28-1.19-0.38-1.77
				c-0.29-0.58-0.44-1.17-0.44-1.77V2.39c-4.11-18.03-12.34-38.21-24.69-60.54c-0.49-0.79-0.58-1.62-0.29-2.5
				c0.29-0.89,0.82-1.57,1.6-2.06c0.59-0.39,1.48-0.48,2.65-0.29c0.79,0.29,1.43,0.83,1.92,1.6c10.09,18.33,17.49,35.19,22.19,50.56
				c0.98-2.54,2.19-5.38,3.6-8.52c1.43-3.14,3.07-6.52,4.94-10.15c2.54-4.98,5.21-10.05,8-15.19c2.79-5.15,5.76-10.38,8.9-15.67
				c0.48-0.79,1.22-1.33,2.21-1.62c0.88-0.19,1.71-0.05,2.5,0.44c0.78,0.5,1.31,1.19,1.6,2.06c0.19,0.89,0.05,1.77-0.44,2.65
				c-3.14,5.2-6.1,10.32-8.9,15.38c-2.79,5.04-5.41,10.02-7.85,14.92c-6.86,13.61-10.58,23.11-11.17,28.5
				c0.19,0.79,0.39,1.58,0.58,2.38c0.19,0.78,0.34,1.56,0.44,2.33c0.48,2.06,0.63,4.7,0.44,7.94c0,0.97-0.05,2.2-0.15,3.67
				c-0.1,1.47-0.24,3.19-0.44,5.15c-0.1,0.6-0.15,1.12-0.15,1.56c0,0.43,0,0.79,0,1.08c-0.2,2.56-0.32,4.79-0.38,6.71
				c-0.04,1.91-0.02,3.54,0.08,4.92c0.29,3.62,1.07,6.12,2.35,7.48c0.58,0.79,0.82,1.62,0.73,2.5c-0.2,1.08-0.58,1.87-1.17,2.35
				c-0.7,0.6-1.53,0.79-2.5,0.58C179.29,50.4,178.5,50.01,178.02,49.43z"/>
		</g>
	</g>
</g>
<g>
	<g transform="translate(66.477605, 184.917941)">
		<g>
			<path d="M28.32,61.85c-0.93,0-1.74-0.16-2.44-0.48c-0.7-0.32-1.27-0.75-1.73-1.29c-0.45-0.54-0.78-1.17-1-1.88
				c-0.22-0.72-0.33-1.47-0.33-2.25c0-0.79,0.11-1.54,0.33-2.25c0.22-0.71,0.55-1.33,1-1.88c0.46-0.55,1.03-0.98,1.73-1.29
				c0.69-0.32,1.51-0.48,2.44-0.48c0.94,0,1.76,0.16,2.46,0.48c0.69,0.31,1.27,0.74,1.73,1.29c0.46,0.54,0.8,1.17,1.02,1.88
				c0.22,0.71,0.33,1.46,0.33,2.25c0,0.78-0.11,1.53-0.33,2.25c-0.22,0.71-0.56,1.33-1.02,1.88c-0.46,0.54-1.04,0.97-1.73,1.29
				C30.08,61.69,29.27,61.85,28.32,61.85z M28.32,59.93c0.71,0,1.3-0.17,1.79-0.5c0.48-0.33,0.85-0.8,1.1-1.4
				c0.26-0.61,0.4-1.3,0.4-2.08c0-0.79-0.14-1.48-0.4-2.06c-0.25-0.59-0.62-1.06-1.1-1.4c-0.49-0.33-1.08-0.5-1.79-0.5
				c-0.68,0-1.27,0.17-1.77,0.5c-0.49,0.33-0.86,0.8-1.12,1.4c-0.25,0.58-0.38,1.27-0.38,2.06c0,0.78,0.12,1.47,0.38,2.08
				c0.26,0.6,0.64,1.06,1.12,1.4C27.05,59.76,27.64,59.93,28.32,59.93z"/>
		</g>
	</g>
</g>
<g>
	<g transform="translate(75.096482, 184.917941)">
		<g>
			<path d="M28.28,61.64h-2.15V50.26h4.9c0.71,0,1.33,0.12,1.88,0.35c0.54,0.24,0.96,0.6,1.27,1.1c0.3,0.49,0.46,1.12,0.46,1.9
				c0,0.74-0.16,1.37-0.46,1.9c-0.31,0.52-0.73,0.91-1.27,1.19c-0.54,0.27-1.17,0.4-1.88,0.4h-2.75V61.64z M28.28,52.2v3.02h2.46
				c0.57,0,1.01-0.12,1.31-0.38c0.3-0.26,0.46-0.65,0.46-1.15c0-0.48-0.16-0.85-0.48-1.1c-0.31-0.26-0.74-0.4-1.29-0.4H28.28z"/>
		</g>
	</g>
</g>
<g>
	<g transform="translate(81.993812, 184.917941)">
		<g>
			<path d="M30.58,61.64h-2.15V50.26h4.9c0.71,0,1.33,0.12,1.88,0.35c0.54,0.24,0.96,0.6,1.27,1.1c0.3,0.49,0.46,1.12,0.46,1.9
				c0,0.74-0.16,1.37-0.46,1.9c-0.31,0.52-0.73,0.91-1.27,1.19c-0.54,0.27-1.17,0.4-1.88,0.4h-2.75V61.64z M30.58,52.2v3.02h2.46
				c0.57,0,1.01-0.12,1.31-0.38c0.3-0.26,0.46-0.65,0.46-1.15c0-0.48-0.16-0.85-0.48-1.1c-0.31-0.26-0.74-0.4-1.29-0.4H30.58z"/>
		</g>
	</g>
</g>
<g>
	<g transform="translate(88.891143, 184.917941)">
		<g>
			<path d="M35.79,61.85c-0.93,0-1.74-0.16-2.44-0.48c-0.7-0.32-1.27-0.75-1.73-1.29c-0.45-0.54-0.78-1.17-1-1.88
				c-0.22-0.72-0.33-1.47-0.33-2.25c0-0.79,0.11-1.54,0.33-2.25c0.22-0.71,0.55-1.33,1-1.88c0.46-0.55,1.03-0.98,1.73-1.29
				c0.69-0.32,1.51-0.48,2.44-0.48c0.94,0,1.76,0.16,2.46,0.48c0.69,0.31,1.27,0.74,1.73,1.29c0.46,0.54,0.8,1.17,1.02,1.88
				c0.22,0.71,0.33,1.46,0.33,2.25c0,0.78-0.11,1.53-0.33,2.25c-0.22,0.71-0.56,1.33-1.02,1.88c-0.46,0.54-1.04,0.97-1.73,1.29
				C37.55,61.69,36.74,61.85,35.79,61.85z M35.79,59.93c0.71,0,1.3-0.17,1.79-0.5c0.48-0.33,0.85-0.8,1.1-1.4
				c0.26-0.61,0.4-1.3,0.4-2.08c0-0.79-0.14-1.48-0.4-2.06c-0.25-0.59-0.62-1.06-1.1-1.4c-0.49-0.33-1.08-0.5-1.79-0.5
				c-0.68,0-1.27,0.17-1.77,0.5c-0.49,0.33-0.86,0.8-1.12,1.4c-0.25,0.58-0.38,1.27-0.38,2.06c0,0.78,0.12,1.47,0.38,2.08
				c0.26,0.6,0.64,1.06,1.12,1.4C34.52,59.76,35.11,59.93,35.79,59.93z"/>
		</g>
	</g>
</g>
<g>
	<g transform="translate(97.510019, 184.917941)">
		<g>
			<path d="M40.31,56.7l2.04,4.94h-2.27l-1.81-4.54h-2.52v4.54H33.6V50.26h4.9c0.71,0,1.33,0.12,1.88,0.35
				c0.54,0.24,0.96,0.6,1.27,1.1c0.3,0.49,0.46,1.12,0.46,1.9c0,0.75-0.16,1.39-0.48,1.92C41.3,56.07,40.86,56.45,40.31,56.7z
				 M38.21,52.2h-2.46v3.02h2.46c0.57,0,1.01-0.12,1.31-0.38c0.3-0.26,0.46-0.65,0.46-1.15c0-0.48-0.16-0.85-0.48-1.1
				C39.19,52.34,38.76,52.2,38.21,52.2z"/>
		</g>
	</g>
</g>
<g>
	<g transform="translate(104.664461, 184.917941)">
		<g>
			<path d="M40.74,61.64h-2.15V52.2h-3.48v-1.94h9.08v1.94h-3.46V61.64z"/>
		</g>
	</g>
</g>
<g>
	<g transform="translate(111.159363, 184.917941)">
		<g>
			<path d="M42.61,61.85c-1.08,0-1.97-0.18-2.65-0.54c-0.67-0.36-1.16-0.86-1.48-1.52c-0.31-0.67-0.46-1.42-0.46-2.27v-7.25h2.17
				v7.25c0,0.47,0.07,0.89,0.21,1.25c0.15,0.36,0.41,0.65,0.77,0.85c0.36,0.21,0.84,0.31,1.44,0.31c0.61,0,1.09-0.1,1.44-0.31
				c0.36-0.21,0.61-0.49,0.77-0.85c0.15-0.36,0.23-0.78,0.23-1.25v-7.25h2.15v7.25c0,0.85-0.16,1.6-0.48,2.27
				c-0.31,0.66-0.8,1.16-1.48,1.52C44.57,61.67,43.7,61.85,42.61,61.85z"/>
		</g>
	</g>
</g>
<g>
	<g transform="translate(118.850387, 184.917941)">
		<g>
			<path d="M42.86,61.64h-2.15V50.26h2.4l4.67,8.15v-8.15h2.15v11.38h-2.42l-4.65-8.15V61.64z"/>
		</g>
	</g>
</g>
<g>
	<g transform="translate(126.742636, 184.917941)">
		<g>
			<path d="M45.49,61.64h-2.15V50.26h2.15V61.64z"/>
		</g>
	</g>
</g>
<g>
	<g transform="translate(129.324957, 184.917941)">
		<g>
			<path d="M48.71,61.85c-0.54,0-1.1-0.07-1.67-0.21c-0.56-0.12-1.07-0.33-1.54-0.62c-0.47-0.3-0.88-0.71-1.21-1.21
				c-0.32-0.5-0.52-1.11-0.58-1.85h2.23c0.12,0.53,0.32,0.95,0.6,1.25c0.29,0.31,0.62,0.52,1,0.65c0.39,0.11,0.78,0.17,1.19,0.17
				c0.58,0,1.07-0.12,1.46-0.38c0.4-0.25,0.6-0.65,0.6-1.19c0-0.4-0.14-0.71-0.4-0.92c-0.25-0.22-0.58-0.4-1-0.52
				c-0.41-0.12-0.85-0.23-1.33-0.33c-0.47-0.11-0.95-0.23-1.42-0.35c-0.46-0.14-0.89-0.32-1.27-0.54c-0.39-0.22-0.7-0.52-0.94-0.9
				c-0.24-0.39-0.35-0.88-0.35-1.48c0-0.73,0.17-1.34,0.52-1.83c0.36-0.5,0.84-0.88,1.44-1.12c0.61-0.26,1.3-0.4,2.06-0.4
				c0.73,0,1.42,0.14,2.06,0.4c0.65,0.27,1.2,0.66,1.65,1.19c0.44,0.52,0.73,1.19,0.85,2.02h-2.19c-0.14-0.61-0.43-1.05-0.88-1.33
				c-0.45-0.29-0.96-0.44-1.54-0.44c-0.54,0-0.99,0.12-1.33,0.35c-0.35,0.22-0.52,0.55-0.52,0.98c0,0.35,0.11,0.62,0.35,0.83
				c0.25,0.2,0.57,0.35,0.96,0.46c0.4,0.11,0.83,0.22,1.29,0.33c0.48,0.1,0.96,0.22,1.44,0.38c0.48,0.14,0.93,0.33,1.33,0.58
				c0.42,0.24,0.75,0.56,1,0.98c0.25,0.41,0.38,0.93,0.38,1.56c0,1.07-0.38,1.93-1.12,2.56C51.09,61.54,50.05,61.85,48.71,61.85z"/>
		</g>
	</g>
</g>
<g>
	<g transform="translate(136.557667, 184.917941)">
		<g>
			<path d="M51.37,61.64h-2.15V52.2h-3.48v-1.94h9.08v1.94h-3.46V61.64z"/>
		</g>
	</g>
</g>
<g>
	<g transform="translate(143.052573, 184.917941)">
		<g>
			<path d="M50.93,61.64h-2.15V50.26h2.15V61.64z"/>
		</g>
	</g>
</g>
<g>
	<g transform="translate(145.634893, 184.917941)">
		<g>
			<path d="M54.71,61.85c-0.93,0-1.74-0.16-2.44-0.48c-0.7-0.32-1.27-0.75-1.73-1.29c-0.45-0.54-0.78-1.17-1-1.88
				c-0.22-0.72-0.33-1.47-0.33-2.25c0-0.79,0.11-1.54,0.33-2.25c0.22-0.71,0.55-1.33,1-1.88c0.46-0.55,1.03-0.98,1.73-1.29
				c0.69-0.32,1.51-0.48,2.44-0.48c0.94,0,1.76,0.16,2.44,0.48c0.68,0.32,1.22,0.77,1.62,1.33c0.42,0.57,0.67,1.22,0.77,1.96h-2.33
				c-0.1-0.59-0.39-1.05-0.85-1.35c-0.46-0.32-1.02-0.48-1.69-0.48c-0.7,0-1.29,0.17-1.77,0.5c-0.47,0.33-0.83,0.8-1.08,1.4
				c-0.25,0.58-0.38,1.27-0.38,2.06c0,0.78,0.12,1.47,0.38,2.08c0.25,0.6,0.61,1.06,1.08,1.4c0.48,0.33,1.07,0.5,1.77,0.5
				c0.67,0,1.23-0.16,1.69-0.48c0.46-0.33,0.74-0.83,0.85-1.5h2.33c-0.1,0.78-0.35,1.47-0.77,2.06c-0.41,0.58-0.95,1.04-1.62,1.35
				C56.46,61.69,55.65,61.85,54.71,61.85z"/>
		</g>
	</g>
</g>
<g>
	<g transform="translate(66.477605, 195.16512)">
		<g>
			<path d="M27.95,65.06h-4.69V53.68h4.5c1.39,0,2.39,0.31,3,0.94c0.47,0.46,0.71,1.1,0.71,1.92c0,0.64-0.16,1.19-0.46,1.65
				c-0.29,0.46-0.7,0.76-1.23,0.9c0.73,0.12,1.29,0.42,1.67,0.88c0.39,0.46,0.58,1.06,0.58,1.79c0,0.56-0.1,1.04-0.29,1.44
				c-0.18,0.41-0.42,0.73-0.71,0.98c-0.33,0.27-0.7,0.47-1.1,0.6c-0.41,0.12-0.78,0.21-1.12,0.25
				C28.45,65.04,28.17,65.06,27.95,65.06z M25.41,55.62v2.79h2.21c0.54,0,0.96-0.11,1.25-0.35c0.29-0.25,0.44-0.6,0.44-1.06
				c0-0.44-0.14-0.77-0.4-0.98c-0.32-0.26-0.86-0.4-1.62-0.4H25.41z M25.41,60.16v2.98h2.27c0.29,0,0.6-0.02,0.94-0.06
				c0.33-0.05,0.61-0.19,0.85-0.4c0.14-0.11,0.24-0.25,0.31-0.42c0.07-0.18,0.1-0.41,0.1-0.69c0-0.44-0.1-0.76-0.31-0.96
				c-0.21-0.19-0.47-0.32-0.77-0.38c-0.29-0.05-0.59-0.08-0.9-0.08H25.41z"/>
		</g>
	</g>
</g>
<g>
	<g transform="translate(73.732657, 195.16512)">
		<g>
			<path d="M30.74,65.26c-0.93,0-1.74-0.16-2.44-0.48c-0.7-0.32-1.27-0.75-1.73-1.29c-0.45-0.54-0.78-1.17-1-1.88
				c-0.22-0.72-0.33-1.47-0.33-2.25c0-0.79,0.11-1.54,0.33-2.25c0.22-0.71,0.55-1.33,1-1.88c0.46-0.55,1.03-0.98,1.73-1.29
				c0.69-0.32,1.51-0.48,2.44-0.48c0.94,0,1.76,0.16,2.46,0.48c0.69,0.31,1.27,0.74,1.73,1.29c0.46,0.54,0.8,1.17,1.02,1.88
				c0.22,0.71,0.33,1.46,0.33,2.25c0,0.78-0.11,1.53-0.33,2.25c-0.22,0.71-0.56,1.33-1.02,1.88c-0.46,0.54-1.04,0.97-1.73,1.29
				C32.5,65.1,31.68,65.26,30.74,65.26z M30.74,63.35c0.71,0,1.3-0.17,1.79-0.5c0.48-0.33,0.85-0.8,1.1-1.4
				c0.26-0.61,0.4-1.3,0.4-2.08c0-0.79-0.14-1.48-0.4-2.06c-0.25-0.59-0.62-1.06-1.1-1.4c-0.49-0.33-1.08-0.5-1.79-0.5
				c-0.68,0-1.27,0.17-1.77,0.5c-0.49,0.33-0.86,0.8-1.12,1.4c-0.25,0.58-0.38,1.27-0.38,2.06c0,0.78,0.12,1.47,0.38,2.08
				c0.26,0.6,0.64,1.06,1.12,1.4C29.47,63.18,30.06,63.35,30.74,63.35z"/>
		</g>
	</g>
</g>
<g>
	<g transform="translate(82.351534, 195.16512)">
		<g>
			<path d="M33.61,65.26c-0.93,0-1.74-0.16-2.44-0.48c-0.7-0.32-1.27-0.75-1.73-1.29c-0.45-0.54-0.78-1.17-1-1.88
				c-0.22-0.72-0.33-1.47-0.33-2.25c0-0.79,0.11-1.54,0.33-2.25c0.22-0.71,0.55-1.33,1-1.88c0.46-0.55,1.03-0.98,1.73-1.29
				c0.69-0.32,1.51-0.48,2.44-0.48c0.94,0,1.76,0.16,2.46,0.48c0.69,0.31,1.27,0.74,1.73,1.29c0.46,0.54,0.8,1.17,1.02,1.88
				c0.22,0.71,0.33,1.46,0.33,2.25c0,0.78-0.11,1.53-0.33,2.25c-0.22,0.71-0.56,1.33-1.02,1.88c-0.46,0.54-1.04,0.97-1.73,1.29
				C35.37,65.1,34.56,65.26,33.61,65.26z M33.61,63.35c0.71,0,1.3-0.17,1.79-0.5c0.48-0.33,0.85-0.8,1.1-1.4
				c0.26-0.61,0.4-1.3,0.4-2.08c0-0.79-0.14-1.48-0.4-2.06c-0.25-0.59-0.62-1.06-1.1-1.4c-0.49-0.33-1.08-0.5-1.79-0.5
				c-0.68,0-1.27,0.17-1.77,0.5c-0.49,0.33-0.86,0.8-1.12,1.4c-0.25,0.58-0.38,1.27-0.38,2.06c0,0.78,0.12,1.47,0.38,2.08
				c0.26,0.6,0.64,1.06,1.12,1.4C32.34,63.18,32.93,63.35,33.61,63.35z"/>
		</g>
	</g>
</g>
<g>
	<g transform="translate(90.970412, 195.16512)">
		<g>
			<path d="M33.57,65.06h-2.15V53.68h2.15v5.06l4-5.06h2.62l-4.54,5.5l4.69,5.88h-2.67l-4.1-5.27V65.06z"/>
		</g>
	</g>
</g>
<g>
	<g transform="translate(97.91246, 195.16512)">
	</g>
</g>
<g>
	<g transform="translate(100.360621, 195.16512)">
		<g>
			<path d="M39.05,65.26c-0.54,0-1.1-0.07-1.67-0.21c-0.56-0.12-1.07-0.33-1.54-0.62c-0.47-0.3-0.88-0.71-1.21-1.21
				c-0.32-0.5-0.52-1.11-0.58-1.85h2.23c0.12,0.53,0.32,0.95,0.6,1.25c0.29,0.31,0.62,0.52,1,0.65c0.39,0.11,0.78,0.17,1.19,0.17
				c0.58,0,1.07-0.12,1.46-0.38c0.4-0.25,0.6-0.65,0.6-1.19c0-0.4-0.14-0.71-0.4-0.92c-0.25-0.22-0.58-0.4-1-0.52
				c-0.41-0.12-0.85-0.23-1.33-0.33c-0.47-0.11-0.95-0.23-1.42-0.35c-0.46-0.14-0.89-0.32-1.27-0.54c-0.39-0.22-0.7-0.52-0.94-0.9
				c-0.24-0.39-0.35-0.88-0.35-1.48c0-0.73,0.17-1.34,0.52-1.83c0.36-0.5,0.84-0.88,1.44-1.12c0.61-0.26,1.3-0.4,2.06-0.4
				c0.73,0,1.42,0.14,2.06,0.4c0.65,0.27,1.2,0.66,1.65,1.19c0.44,0.52,0.73,1.19,0.85,2.02h-2.19c-0.14-0.61-0.43-1.05-0.88-1.33
				c-0.45-0.29-0.96-0.44-1.54-0.44c-0.54,0-0.99,0.12-1.33,0.35c-0.35,0.22-0.52,0.55-0.52,0.98c0,0.35,0.11,0.62,0.35,0.83
				c0.25,0.2,0.57,0.35,0.96,0.46c0.4,0.11,0.83,0.22,1.29,0.33c0.48,0.1,0.96,0.22,1.44,0.38c0.48,0.14,0.93,0.33,1.33,0.58
				c0.42,0.24,0.75,0.56,1,0.98c0.25,0.41,0.38,0.93,0.38,1.56c0,1.07-0.38,1.93-1.12,2.56C41.44,64.95,40.4,65.26,39.05,65.26z"/>
		</g>
	</g>
</g>
<g>
	<g transform="translate(107.593327, 195.16512)">
		<g>
			<path d="M39.11,65.06h-2.15V53.68h2.15V65.06z"/>
		</g>
	</g>
</g>
<g>
	<g transform="translate(110.175644, 195.16512)">
		<g>
			<path d="M42.93,65.26c-0.96,0-1.79-0.16-2.48-0.48c-0.7-0.32-1.27-0.76-1.73-1.31c-0.46-0.55-0.8-1.18-1.02-1.88
				c-0.21-0.71-0.31-1.45-0.31-2.23c0-0.78,0.1-1.51,0.31-2.21c0.22-0.71,0.56-1.34,1.02-1.9c0.46-0.55,1.03-0.99,1.73-1.31
				c0.69-0.32,1.52-0.48,2.48-0.48c1.47,0,2.64,0.35,3.5,1.06c0.88,0.7,1.42,1.6,1.65,2.71h-2.35c-0.18-0.58-0.51-1.03-0.98-1.35
				c-0.47-0.32-1.08-0.48-1.83-0.48c-0.72,0-1.33,0.18-1.81,0.52c-0.49,0.35-0.85,0.82-1.1,1.42c-0.25,0.6-0.38,1.27-0.38,2
				c0,0.77,0.12,1.45,0.38,2.06c0.26,0.6,0.65,1.07,1.17,1.42c0.53,0.35,1.17,0.52,1.94,0.52c0.9,0,1.61-0.22,2.15-0.67
				c0.53-0.46,0.8-1.14,0.81-2.04h-2.52v-1.77h4.65v6.19h-1.94v-1.27c-0.41,0.56-0.91,0.95-1.52,1.17
				C44.12,65.16,43.52,65.26,42.93,65.26z"/>
		</g>
	</g>
</g>
<g>
	<g transform="translate(118.783334, 195.16512)">
		<g>
			<path d="M42.84,65.06H40.7V53.68h2.4l4.67,8.15v-8.15h2.15v11.38h-2.42l-4.65-8.15V65.06z"/>
		</g>
	</g>
</g>
<g>
	<g transform="translate(126.675579, 195.16512)">
		<g>
			<path d="M45.47,65.06h-2.15V53.68h2.15V65.06z"/>
		</g>
	</g>
</g>
<g>
	<g transform="translate(129.257899, 195.16512)">
		<g>
			<path d="M46.33,65.06h-2.15V53.68h2.4l4.67,8.15v-8.15h2.15v11.38h-2.42l-4.65-8.15V65.06z"/>
		</g>
	</g>
</g>
<g>
	<g transform="translate(137.150148, 195.16512)">
		<g>
			<path d="M51.92,65.26c-0.96,0-1.79-0.16-2.48-0.48c-0.7-0.32-1.27-0.76-1.73-1.31c-0.46-0.55-0.8-1.18-1.02-1.88
				c-0.21-0.71-0.31-1.45-0.31-2.23c0-0.78,0.1-1.51,0.31-2.21c0.22-0.71,0.56-1.34,1.02-1.9c0.46-0.55,1.03-0.99,1.73-1.31
				c0.69-0.32,1.52-0.48,2.48-0.48c1.47,0,2.64,0.35,3.5,1.06c0.88,0.7,1.42,1.6,1.65,2.71h-2.35c-0.18-0.58-0.51-1.03-0.98-1.35
				c-0.47-0.32-1.08-0.48-1.83-0.48c-0.72,0-1.33,0.18-1.81,0.52c-0.49,0.35-0.85,0.82-1.1,1.42c-0.25,0.6-0.38,1.27-0.38,2
				c0,0.77,0.12,1.45,0.38,2.06c0.26,0.6,0.65,1.07,1.17,1.42c0.53,0.35,1.17,0.52,1.94,0.52c0.9,0,1.61-0.22,2.15-0.67
				c0.53-0.46,0.8-1.14,0.81-2.04h-2.52v-1.77h4.65v6.19h-1.94v-1.27c-0.41,0.56-0.91,0.95-1.52,1.17
				C53.11,65.16,52.52,65.26,51.92,65.26z"/>
		</g>
	</g>
</g>
<g>
	<g transform="translate(66.477605, 205.4123)">
		<g>
			<path d="M25.41,68.47h-2.15V57.1h3.54l2.35,8.79l2.33-8.79h3.58v11.38h-2.15v-9.75l-2.71,9.75h-2.1l-2.71-9.69V68.47z"/>
		</g>
	</g>
</g>
<g>
	<g transform="translate(76.314964, 205.4123)">
		<g>
			<path d="M31.6,68.68c-0.93,0-1.74-0.16-2.44-0.48c-0.7-0.32-1.27-0.75-1.73-1.29c-0.45-0.54-0.78-1.17-1-1.88
				c-0.22-0.72-0.33-1.47-0.33-2.25c0-0.79,0.11-1.54,0.33-2.25c0.22-0.71,0.55-1.33,1-1.88c0.46-0.55,1.03-0.98,1.73-1.29
				c0.69-0.32,1.51-0.48,2.44-0.48c0.94,0,1.76,0.16,2.46,0.48c0.69,0.31,1.27,0.74,1.73,1.29c0.46,0.54,0.8,1.17,1.02,1.88
				c0.22,0.71,0.33,1.46,0.33,2.25c0,0.78-0.11,1.53-0.33,2.25c-0.22,0.71-0.56,1.33-1.02,1.88c-0.46,0.54-1.04,0.97-1.73,1.29
				C33.36,68.52,32.54,68.68,31.6,68.68z M31.6,66.76c0.71,0,1.3-0.17,1.79-0.5c0.48-0.33,0.85-0.8,1.1-1.4
				c0.26-0.61,0.4-1.3,0.4-2.08c0-0.79-0.14-1.48-0.4-2.06c-0.25-0.59-0.62-1.06-1.1-1.4c-0.49-0.33-1.08-0.5-1.79-0.5
				c-0.68,0-1.27,0.17-1.77,0.5c-0.49,0.33-0.86,0.8-1.12,1.4c-0.25,0.58-0.38,1.27-0.38,2.06c0,0.78,0.12,1.47,0.38,2.08
				c0.26,0.6,0.64,1.06,1.12,1.4C30.33,66.6,30.92,66.76,31.6,66.76z"/>
		</g>
	</g>
</g>
<g>
	<g transform="translate(84.933841, 205.4123)">
		<g>
			<path d="M31.56,68.47h-2.15V57.1h3.54l2.35,8.79l2.33-8.79h3.58v11.38h-2.15v-9.75l-2.71,9.75h-2.1l-2.71-9.69V68.47z"/>
		</g>
	</g>
</g>
<g>
	<g transform="translate(94.771201, 205.4123)">
		<g>
			<path d="M40.27,68.47h-7.58V57.1h7.58v1.94h-5.44v2.79h4.85v1.92h-4.85v2.81h5.44V68.47z"/>
		</g>
	</g>
</g>
<g>
	<g transform="translate(101.165493, 205.4123)">
		<g>
			<path d="M36.97,68.47h-2.15V57.1h2.4l4.67,8.15V57.1h2.15v11.38h-2.42l-4.65-8.15V68.47z"/>
		</g>
	</g>
</g>
<g>
	<g transform="translate(109.057738, 205.4123)">
		<g>
			<path d="M42.2,68.47h-2.15v-9.44h-3.48V57.1h9.08v1.94H42.2V68.47z"/>
		</g>
	</g>
</g>
<g>
	<g transform="translate(115.55264, 205.4123)">
		<g>
			<path d="M44.12,68.68c-0.54,0-1.1-0.07-1.67-0.21c-0.56-0.12-1.07-0.33-1.54-0.62c-0.47-0.3-0.88-0.71-1.21-1.21
				c-0.32-0.5-0.52-1.11-0.58-1.85h2.23c0.12,0.53,0.32,0.95,0.6,1.25c0.29,0.31,0.62,0.52,1,0.65c0.39,0.11,0.78,0.17,1.19,0.17
				c0.58,0,1.07-0.12,1.46-0.38c0.4-0.25,0.6-0.65,0.6-1.19c0-0.4-0.14-0.71-0.4-0.92c-0.25-0.22-0.58-0.4-1-0.52
				c-0.41-0.12-0.85-0.23-1.33-0.33c-0.47-0.11-0.95-0.23-1.42-0.35c-0.46-0.14-0.89-0.32-1.27-0.54c-0.39-0.22-0.7-0.52-0.94-0.9
				c-0.24-0.39-0.35-0.88-0.35-1.48c0-0.73,0.17-1.34,0.52-1.83c0.36-0.5,0.84-0.88,1.44-1.12c0.61-0.26,1.3-0.4,2.06-0.4
				c0.73,0,1.42,0.14,2.06,0.4c0.65,0.27,1.2,0.66,1.65,1.19c0.44,0.52,0.73,1.19,0.85,2.02h-2.19c-0.14-0.61-0.43-1.05-0.88-1.33
				c-0.45-0.29-0.96-0.44-1.54-0.44c-0.54,0-0.99,0.12-1.33,0.35c-0.35,0.22-0.52,0.55-0.52,0.98c0,0.35,0.11,0.62,0.35,0.83
				c0.25,0.2,0.57,0.35,0.96,0.46c0.4,0.11,0.83,0.22,1.29,0.33c0.48,0.1,0.96,0.22,1.44,0.38c0.48,0.14,0.93,0.33,1.33,0.58
				c0.42,0.24,0.75,0.56,1,0.98c0.25,0.41,0.38,0.93,0.38,1.56c0,1.07-0.38,1.93-1.12,2.56C46.5,68.37,45.46,68.68,44.12,68.68z"/>
		</g>
	</g>
</g>
<g>
	<g transform="translate(66.477605, 225.90666)">
	</g>
</g>
<g>
	<g transform="translate(244.596841, 184.917941)">
		<g>
			<path d="M87.13,61.85c-0.54,0-1.1-0.07-1.67-0.21c-0.56-0.12-1.07-0.33-1.54-0.62c-0.47-0.3-0.88-0.71-1.21-1.21
				c-0.32-0.5-0.52-1.11-0.58-1.85h2.23c0.12,0.53,0.32,0.95,0.6,1.25c0.29,0.31,0.62,0.52,1,0.65c0.39,0.11,0.78,0.17,1.19,0.17
				c0.58,0,1.07-0.12,1.46-0.38c0.4-0.25,0.6-0.65,0.6-1.19c0-0.4-0.14-0.71-0.4-0.92c-0.25-0.22-0.58-0.4-1-0.52
				c-0.41-0.12-0.85-0.23-1.33-0.33c-0.47-0.11-0.95-0.23-1.42-0.35c-0.46-0.14-0.89-0.32-1.27-0.54c-0.39-0.22-0.7-0.52-0.94-0.9
				c-0.24-0.39-0.35-0.88-0.35-1.48c0-0.73,0.17-1.34,0.52-1.83c0.36-0.5,0.84-0.88,1.44-1.12c0.61-0.26,1.3-0.4,2.06-0.4
				c0.73,0,1.42,0.14,2.06,0.4c0.65,0.27,1.2,0.66,1.65,1.19c0.44,0.52,0.73,1.19,0.85,2.02H88.9c-0.14-0.61-0.43-1.05-0.88-1.33
				c-0.45-0.29-0.96-0.44-1.54-0.44c-0.54,0-0.99,0.12-1.33,0.35c-0.35,0.22-0.52,0.55-0.52,0.98c0,0.35,0.11,0.62,0.35,0.83
				c0.25,0.2,0.57,0.35,0.96,0.46c0.4,0.11,0.83,0.22,1.29,0.33c0.48,0.1,0.96,0.22,1.44,0.38c0.48,0.14,0.93,0.33,1.33,0.58
				c0.42,0.24,0.75,0.56,1,0.98c0.25,0.41,0.38,0.93,0.38,1.56c0,1.07-0.38,1.93-1.12,2.56C89.52,61.54,88.48,61.85,87.13,61.85z"/>
		</g>
	</g>
</g>
<g>
	<g transform="translate(251.829549, 184.917941)">
		<g>
			<path d="M87.19,61.64h-2.15V50.26h2.15V61.64z"/>
		</g>
	</g>
</g>
<g>
	<g transform="translate(254.411867, 184.917941)">
		<g>
			<path d="M88.05,61.64H85.9V50.26h2.4l4.67,8.15v-8.15h2.15v11.38H92.7l-4.65-8.15V61.64z"/>
		</g>
	</g>
</g>
<g>
	<g transform="translate(262.304113, 184.917941)">
		<g>
			<path d="M93.6,61.85c-0.93,0-1.74-0.16-2.44-0.48c-0.7-0.32-1.27-0.75-1.73-1.29c-0.45-0.54-0.78-1.17-1-1.88
				c-0.22-0.72-0.33-1.47-0.33-2.25c0-0.79,0.11-1.54,0.33-2.25c0.22-0.71,0.55-1.33,1-1.88c0.46-0.55,1.03-0.98,1.73-1.29
				c0.69-0.32,1.51-0.48,2.44-0.48c0.94,0,1.76,0.16,2.44,0.48c0.68,0.32,1.22,0.77,1.62,1.33c0.42,0.57,0.67,1.22,0.77,1.96H96.1
				c-0.1-0.59-0.39-1.05-0.85-1.35c-0.46-0.32-1.02-0.48-1.69-0.48c-0.7,0-1.29,0.17-1.77,0.5c-0.47,0.33-0.83,0.8-1.08,1.4
				c-0.25,0.58-0.38,1.27-0.38,2.06c0,0.78,0.12,1.47,0.38,2.08c0.25,0.6,0.61,1.06,1.08,1.4c0.48,0.33,1.07,0.5,1.77,0.5
				c0.67,0,1.23-0.16,1.69-0.48c0.46-0.33,0.74-0.83,0.85-1.5h2.33c-0.1,0.78-0.35,1.47-0.77,2.06c-0.41,0.58-0.95,1.04-1.62,1.35
				C95.35,61.69,94.54,61.85,93.6,61.85z"/>
		</g>
	</g>
</g>
<g>
	<g transform="translate(270.330515, 184.917941)">
		<g>
			<path d="M98.79,61.64h-7.58V50.26h7.58v1.94h-5.44v2.79h4.85v1.92h-4.85v2.81h5.44V61.64z"/>
		</g>
	</g>
</g>
<g>
	<g transform="translate(276.735723, 184.917941)">
	</g>
</g>
<g>
	<g transform="translate(244.596841, 195.16512)">
		<g>
			<path d="M90.57,65.06h-8.15v-1.62l3.58-3.12c0.68-0.59,1.19-1.15,1.54-1.67c0.34-0.51,0.52-1.03,0.52-1.56
				c0-0.51-0.14-0.93-0.42-1.25c-0.27-0.33-0.7-0.5-1.29-0.5c-0.61,0-1.09,0.19-1.44,0.56c-0.35,0.38-0.54,0.97-0.58,1.79h-1.98
				c0.04-1.34,0.41-2.38,1.1-3.1c0.69-0.72,1.67-1.08,2.92-1.08c0.71,0,1.34,0.14,1.9,0.42c0.55,0.27,0.98,0.66,1.29,1.17
				c0.32,0.5,0.48,1.1,0.48,1.79c0,0.67-0.14,1.29-0.42,1.88c-0.28,0.57-0.62,1.09-1.04,1.56c-0.42,0.47-0.83,0.89-1.23,1.25
				l-1.75,1.58h4.96V65.06z"/>
		</g>
	</g>
</g>
<g>
	<g transform="translate(251.292965, 195.16512)">
		<g>
			<path d="M88.87,65.26c-0.86,0-1.6-0.2-2.23-0.6c-0.62-0.4-1.1-1.03-1.44-1.9c-0.33-0.88-0.5-2.02-0.5-3.44
				c0-1.39,0.17-2.51,0.5-3.35c0.33-0.86,0.8-1.49,1.42-1.9c0.61-0.4,1.34-0.6,2.19-0.6c0.86,0,1.6,0.2,2.23,0.6
				c0.62,0.41,1.1,1.04,1.44,1.92c0.33,0.86,0.5,2,0.5,3.42c0,1.38-0.17,2.5-0.5,3.38c-0.33,0.86-0.81,1.49-1.42,1.9
				C90.44,65.07,89.71,65.26,88.87,65.26z M88.82,63.35c0.39,0,0.73-0.11,1.04-0.35c0.3-0.23,0.54-0.64,0.71-1.21
				c0.17-0.58,0.25-1.38,0.25-2.4c0-1.03-0.09-1.82-0.27-2.4c-0.17-0.58-0.41-0.99-0.71-1.23c-0.31-0.23-0.66-0.35-1.06-0.35
				c-0.39,0-0.73,0.12-1.02,0.38c-0.29,0.24-0.52,0.64-0.69,1.21c-0.16,0.57-0.23,1.36-0.23,2.38c0,1.03,0.07,1.83,0.23,2.42
				c0.17,0.57,0.4,0.97,0.69,1.21C88.06,63.23,88.42,63.35,88.82,63.35z"/>
		</g>
	</g>
</g>
<g>
	<g transform="translate(258.235015, 195.16512)">
		<g>
			<path d="M91.18,65.26c-0.86,0-1.6-0.2-2.23-0.6c-0.62-0.4-1.1-1.03-1.44-1.9c-0.33-0.88-0.5-2.02-0.5-3.44
				c0-1.39,0.17-2.51,0.5-3.35c0.33-0.86,0.8-1.49,1.42-1.9c0.61-0.4,1.34-0.6,2.19-0.6c0.86,0,1.6,0.2,2.23,0.6
				c0.62,0.41,1.1,1.04,1.44,1.92c0.33,0.86,0.5,2,0.5,3.42c0,1.38-0.17,2.5-0.5,3.38c-0.33,0.86-0.81,1.49-1.42,1.9
				C92.75,65.07,92.02,65.26,91.18,65.26z M91.14,63.35c0.39,0,0.73-0.11,1.04-0.35c0.3-0.23,0.54-0.64,0.71-1.21
				c0.17-0.58,0.25-1.38,0.25-2.4c0-1.03-0.09-1.82-0.27-2.4c-0.17-0.58-0.41-0.99-0.71-1.23c-0.31-0.23-0.66-0.35-1.06-0.35
				c-0.39,0-0.73,0.12-1.02,0.38c-0.29,0.24-0.52,0.64-0.69,1.21c-0.16,0.57-0.23,1.36-0.23,2.38c0,1.03,0.07,1.83,0.23,2.42
				c0.17,0.57,0.4,0.97,0.69,1.21C90.38,63.23,90.73,63.35,91.14,63.35z"/>
		</g>
	</g>
</g>
<g>
	<g transform="translate(265.177063, 195.16512)">
		<g>
			<path d="M93.58,65.26c-1.38,0-2.44-0.48-3.19-1.46c-0.74-0.97-1.1-2.34-1.1-4.12c0-1.29,0.17-2.4,0.5-3.31
				c0.33-0.93,0.82-1.65,1.46-2.15c0.65-0.5,1.45-0.75,2.4-0.75c1.11,0,2,0.31,2.67,0.92c0.67,0.61,1.06,1.44,1.19,2.48h-1.92
				c-0.24-1.03-0.89-1.54-1.94-1.54c-0.85,0-1.45,0.31-1.81,0.94c-0.36,0.61-0.54,1.45-0.54,2.5c0.38-0.5,0.79-0.82,1.25-0.98
				c0.46-0.17,0.9-0.25,1.31-0.25c0.72,0,1.35,0.16,1.9,0.46c0.55,0.31,0.98,0.74,1.29,1.29c0.3,0.56,0.46,1.22,0.46,1.98
				c0,0.78-0.17,1.47-0.5,2.08c-0.33,0.6-0.8,1.07-1.4,1.42C95.01,65.1,94.34,65.26,93.58,65.26z M93.56,63.43
				c0.58,0,1.03-0.2,1.33-0.6c0.3-0.42,0.46-0.93,0.46-1.54c0-0.61-0.16-1.1-0.48-1.48c-0.31-0.39-0.74-0.58-1.31-0.58
				c-0.61,0-1.1,0.2-1.46,0.58c-0.35,0.38-0.52,0.87-0.52,1.48c0,0.62,0.17,1.14,0.52,1.54C92.46,63.23,92.94,63.43,93.56,63.43z"/>
		</g>
	</g>
</g>
<g>
	<g transform="translate(408.550197, 183.476671)">
		<g>
			<path d="M139.43,61.16h-2.15V49.78h3.54l2.35,8.79l2.33-8.79h3.58v11.38h-2.15v-9.75l-2.71,9.75h-2.1l-2.71-9.69V61.16z"/>
		</g>
	</g>
</g>
<g>
	<g transform="translate(418.387556, 183.476671)">
		<g>
			<path d="M145.63,61.37c-0.93,0-1.74-0.16-2.44-0.48c-0.7-0.32-1.27-0.75-1.73-1.29c-0.45-0.54-0.78-1.17-1-1.88
				c-0.22-0.72-0.33-1.47-0.33-2.25c0-0.79,0.11-1.54,0.33-2.25c0.22-0.71,0.55-1.33,1-1.88c0.46-0.55,1.03-0.98,1.73-1.29
				c0.69-0.32,1.51-0.48,2.44-0.48c0.94,0,1.76,0.16,2.46,0.48c0.69,0.31,1.27,0.74,1.73,1.29c0.46,0.54,0.8,1.17,1.02,1.88
				c0.22,0.71,0.33,1.46,0.33,2.25c0,0.78-0.11,1.53-0.33,2.25c-0.22,0.71-0.56,1.33-1.02,1.88c-0.46,0.54-1.04,0.97-1.73,1.29
				C147.39,61.21,146.57,61.37,145.63,61.37z M145.63,59.45c0.71,0,1.3-0.17,1.79-0.5c0.48-0.33,0.85-0.8,1.1-1.4
				c0.26-0.61,0.4-1.3,0.4-2.08c0-0.79-0.14-1.48-0.4-2.06c-0.25-0.59-0.62-1.06-1.1-1.4c-0.49-0.33-1.08-0.5-1.79-0.5
				c-0.68,0-1.27,0.17-1.77,0.5c-0.49,0.33-0.86,0.8-1.12,1.4c-0.25,0.58-0.38,1.27-0.38,2.06c0,0.78,0.12,1.47,0.38,2.08
				c0.26,0.6,0.64,1.06,1.12,1.4C144.36,59.28,144.94,59.45,145.63,59.45z"/>
		</g>
	</g>
</g>
<g>
	<g transform="translate(427.006433, 183.476671)">
		<g>
			<path d="M147.94,61.37c-0.54,0-1.1-0.07-1.67-0.21c-0.56-0.12-1.07-0.33-1.54-0.62c-0.47-0.3-0.88-0.71-1.21-1.21
				c-0.32-0.5-0.52-1.11-0.58-1.85h2.23c0.12,0.53,0.32,0.95,0.6,1.25c0.29,0.31,0.62,0.52,1,0.65c0.39,0.11,0.78,0.17,1.19,0.17
				c0.58,0,1.07-0.12,1.46-0.38c0.4-0.25,0.6-0.65,0.6-1.19c0-0.4-0.14-0.71-0.4-0.92c-0.25-0.22-0.58-0.4-1-0.52
				c-0.41-0.12-0.85-0.23-1.33-0.33c-0.47-0.11-0.95-0.23-1.42-0.35c-0.46-0.14-0.89-0.32-1.27-0.54c-0.39-0.22-0.7-0.52-0.94-0.9
				c-0.24-0.39-0.35-0.88-0.35-1.48c0-0.73,0.17-1.34,0.52-1.83c0.36-0.5,0.84-0.88,1.44-1.12c0.61-0.26,1.3-0.4,2.06-0.4
				c0.73,0,1.42,0.14,2.06,0.4c0.65,0.27,1.2,0.66,1.65,1.19c0.44,0.52,0.73,1.19,0.85,2.02h-2.19c-0.14-0.61-0.43-1.05-0.88-1.33
				c-0.45-0.29-0.96-0.44-1.54-0.44c-0.54,0-0.99,0.12-1.33,0.35c-0.35,0.22-0.52,0.55-0.52,0.98c0,0.35,0.11,0.62,0.35,0.83
				c0.25,0.2,0.57,0.35,0.96,0.46c0.4,0.11,0.83,0.22,1.29,0.33c0.48,0.1,0.96,0.22,1.44,0.38c0.48,0.14,0.93,0.33,1.33,0.58
				c0.42,0.24,0.75,0.56,1,0.98c0.25,0.41,0.38,0.93,0.38,1.56c0,1.07-0.38,1.93-1.12,2.56C150.32,61.05,149.28,61.37,147.94,61.37z
				"/>
		</g>
	</g>
</g>
<g>
	<g transform="translate(434.239141, 183.476671)">
		<g>
			<path d="M150.6,61.16h-2.15v-9.44h-3.48v-1.94h9.08v1.94h-3.46V61.16z"/>
		</g>
	</g>
</g>
<g>
	<g transform="translate(440.734043, 183.476671)">
		<g>
			<path d="M154.97,61.16h-6.96V49.78h2.15v9.46h4.81V61.16z"/>
		</g>
	</g>
</g>
<g>
	<g transform="translate(446.289921, 183.476671)">
		<g>
			<path d="M155.2,61.16h-2.25V56.7l-4.15-6.92h2.5l2.75,4.83l2.77-4.83h2.5l-4.12,6.92V61.16z"/>
		</g>
	</g>
</g>
<g>
	<g transform="translate(408.550197, 193.723851)">
		<g>
			<path d="M144.24,64.57h-6.96V53.2h2.15v9.46h4.81V64.57z"/>
		</g>
	</g>
</g>
<g>
	<g transform="translate(414.106076, 193.723851)">
		<g>
			<path d="M144.2,64.78c-0.93,0-1.74-0.16-2.44-0.48c-0.7-0.32-1.27-0.75-1.73-1.29c-0.45-0.54-0.78-1.17-1-1.88
				c-0.22-0.72-0.33-1.47-0.33-2.25c0-0.79,0.11-1.54,0.33-2.25c0.22-0.71,0.55-1.33,1-1.88c0.46-0.55,1.03-0.98,1.73-1.29
				c0.69-0.32,1.51-0.48,2.44-0.48c0.94,0,1.76,0.16,2.46,0.48c0.69,0.31,1.27,0.74,1.73,1.29c0.46,0.54,0.8,1.17,1.02,1.88
				c0.22,0.71,0.33,1.46,0.33,2.25c0,0.78-0.11,1.53-0.33,2.25c-0.22,0.71-0.56,1.33-1.02,1.88c-0.46,0.54-1.04,0.97-1.73,1.29
				C145.96,64.62,145.14,64.78,144.2,64.78z M144.2,62.87c0.71,0,1.3-0.17,1.79-0.5c0.48-0.33,0.85-0.8,1.1-1.4
				c0.26-0.61,0.4-1.3,0.4-2.08c0-0.79-0.14-1.48-0.4-2.06c-0.25-0.59-0.62-1.06-1.1-1.4c-0.49-0.33-1.08-0.5-1.79-0.5
				c-0.68,0-1.27,0.17-1.77,0.5c-0.49,0.33-0.86,0.8-1.12,1.4c-0.25,0.58-0.38,1.27-0.38,2.06c0,0.78,0.12,1.47,0.38,2.08
				c0.26,0.6,0.64,1.06,1.12,1.4C142.93,62.7,143.52,62.87,144.2,62.87z"/>
		</g>
	</g>
</g>
<g>
	<g transform="translate(422.724953, 193.723851)">
		<g>
			<path d="M144.15,64.57h-2.15V53.2h2.4l4.67,8.15V53.2h2.15v11.38h-2.42l-4.65-8.15V64.57z"/>
		</g>
	</g>
</g>
<g>
	<g transform="translate(430.617199, 193.723851)">
		<g>
			<path d="M147.93,64.57h-3.29V53.2h3.29c1.93,0,3.4,0.49,4.42,1.48c1.03,0.99,1.54,2.4,1.54,4.23c0,1.81-0.52,3.2-1.54,4.19
				C151.32,64.09,149.85,64.57,147.93,64.57z M146.79,55.14v7.52h1.12c0.75,0,1.41-0.11,1.98-0.35c0.58-0.23,1.03-0.62,1.35-1.17
				c0.33-0.55,0.5-1.3,0.5-2.23c0-0.89-0.16-1.6-0.48-2.15c-0.32-0.55-0.77-0.96-1.33-1.23c-0.57-0.26-1.24-0.4-2-0.4H146.79z"/>
		</g>
	</g>
</g>
<g>
	<g transform="translate(438.207628, 193.723851)">
		<g>
			<path d="M152.23,64.78c-0.93,0-1.74-0.16-2.44-0.48c-0.7-0.32-1.27-0.75-1.73-1.29c-0.45-0.54-0.78-1.17-1-1.88
				c-0.22-0.72-0.33-1.47-0.33-2.25c0-0.79,0.11-1.54,0.33-2.25c0.22-0.71,0.55-1.33,1-1.88c0.46-0.55,1.03-0.98,1.73-1.29
				c0.69-0.32,1.51-0.48,2.44-0.48c0.94,0,1.76,0.16,2.46,0.48c0.69,0.31,1.27,0.74,1.73,1.29c0.46,0.54,0.8,1.17,1.02,1.88
				c0.22,0.71,0.33,1.46,0.33,2.25c0,0.78-0.11,1.53-0.33,2.25c-0.22,0.71-0.56,1.33-1.02,1.88c-0.46,0.54-1.04,0.97-1.73,1.29
				C153.99,64.62,153.18,64.78,152.23,64.78z M152.23,62.87c0.71,0,1.3-0.17,1.79-0.5c0.48-0.33,0.85-0.8,1.1-1.4
				c0.26-0.61,0.4-1.3,0.4-2.08c0-0.79-0.14-1.48-0.4-2.06c-0.25-0.59-0.62-1.06-1.1-1.4c-0.49-0.33-1.08-0.5-1.79-0.5
				c-0.68,0-1.27,0.17-1.77,0.5c-0.49,0.33-0.86,0.8-1.12,1.4c-0.25,0.58-0.38,1.27-0.38,2.06c0,0.78,0.12,1.47,0.38,2.08
				c0.26,0.6,0.64,1.06,1.12,1.4C150.96,62.7,151.55,62.87,152.23,62.87z"/>
		</g>
	</g>
</g>
<g>
	<g transform="translate(446.826504, 193.723851)">
		<g>
			<path d="M152.19,64.57h-2.15V53.2h2.4l4.67,8.15V53.2h2.15v11.38h-2.42l-4.65-8.15V64.57z"/>
		</g>
	</g>
</g>
</svg>
