<?xml version="1.0" encoding="utf-8"?>
<!-- Generator: Adobe Illustrator 29.5.0, SVG Export Plug-In . SVG Version: 9.03 Build 0)  -->
<svg version="1.0" id="Layer_1" xmlns="http://www.w3.org/2000/svg" xmlns:xlink="http://www.w3.org/1999/xlink" x="0px" y="0px"
	 viewBox="0 0 840.78 226.45" style="enable-background:new 0 0 840.78 226.45;" xml:space="preserve">
<g>
	<g transform="translate(70.271669, 156.656357)">
		<g>
			<path d="M77,51.93c-0.29,0.88-0.83,1.56-1.62,2.06c-0.78,0.39-1.66,0.44-2.65,0.15c-0.78-0.29-1.41-0.83-1.9-1.62
				c-0.5-0.97-0.6-1.85-0.29-2.65c0.48-1.57,0.8-3.96,0.94-7.19c0.15-3.23,0.03-7.26-0.35-12.06c-0.39-6.76-1.27-15.09-2.65-24.98
				c-0.1,0-0.15,0-0.15,0s-0.05,0-0.15,0c-1.86,0.68-4.12,1.12-6.77,1.31c-0.68,0.1-1.58,0.12-2.71,0.08
				c-1.12-0.05-2.38-0.13-3.75-0.23h-0.15c-2.56-0.19-4.42-0.19-5.58,0c-0.99,0-1.85,0.08-2.58,0.23c-0.74,0.14-1.45,0.31-2.12,0.5
				c-0.29,0.1-0.69,0.15-1.19,0.15c-0.39,1.08-0.73,2.14-1.02,3.17c-0.29,1.03-0.58,2.08-0.88,3.17c-1.08,3.72-1.95,7.35-2.58,10.88
				c-0.64,3.53-1.06,6.86-1.25,10c-0.2,1.07-0.58,1.85-1.17,2.33c-0.79,0.6-1.58,0.85-2.35,0.75c-0.99,0-1.77-0.34-2.35-1.04
				c-0.68-0.68-0.97-1.51-0.88-2.5c0.39-6.86,1.71-14.26,3.96-22.19c0.79-2.54,1.77-5.55,2.94-9.02c1.18-3.48,2.55-7.48,4.12-12
				c0.09-0.09,0.24-0.48,0.44-1.17c1.28-3.43,2.35-6.42,3.23-8.96c0.89-2.55,1.62-4.71,2.21-6.48c0.98-2.84,1.82-5.57,2.5-8.17
				c0.68-2.59,1.22-5.07,1.62-7.42c0.09-0.48,0.19-1.05,0.29-1.69c0.09-0.64,0.19-1.34,0.29-2.12c0-0.19,0.02-0.48,0.06-0.88
				c0.05-0.4,0.13-0.94,0.23-1.62c0.19-1.38,0.34-2.21,0.44-2.5c0.19-1.38,0.39-2.65,0.58-3.81c0.19-1.18,0.4-2.17,0.6-2.96
				c0.48-2.54,1.07-4.3,1.75-5.29c0.39-0.68,0.88-1.17,1.48-1.46c1.07-0.69,2.15-0.79,3.23-0.29c0.88,0.2,1.51,0.64,1.92,1.31
				c0.19,0.2,0.36,0.42,0.5,0.67c0.15,0.25,0.28,0.52,0.38,0.81c0.68,1.57,1.42,4.46,2.21,8.67c0.09,0.2,0.21,0.81,0.35,1.83
				c0.15,1.03,0.42,2.52,0.81,4.48c0.79,3.82,1.23,6.32,1.33,7.5c0.68,3.62,1.29,7.14,1.83,10.52c0.54,3.38,1.05,6.58,1.54,9.62
				c0.48,3.03,0.95,5.92,1.4,8.67c0.44,2.74,0.86,5.39,1.25,7.94c1.76,12.74,2.94,23.32,3.52,31.75
				C78.57,40.76,78.28,48.01,77,51.93z M45.84,0.34c0.5-0.09,1.01-0.17,1.54-0.23c0.54-0.05,1.06-0.08,1.56-0.08
				c1.36-0.19,3.42-0.19,6.17,0h0.15c1.38,0.11,2.53,0.2,3.46,0.25c0.93,0.04,1.73,0.02,2.42-0.08c1.76-0.11,3.33-0.41,4.71-0.9
				c0.78-0.19,1.36-0.24,1.75-0.15C67.2-3.39,66.81-6,66.42-8.7c-0.39-2.69-0.83-5.46-1.31-8.31c-0.5-3.04-1.02-6.25-1.56-9.62
				c-0.53-3.38-1.14-6.87-1.83-10.5c-0.1-0.5-0.32-1.63-0.67-3.4c-0.33-1.76-0.74-4.21-1.23-7.33c-0.1,0.2-0.15,0.42-0.15,0.67
				c0,0.24-0.06,0.5-0.17,0.79c-0.1,0.29-0.15,0.59-0.15,0.9c0,0.29,0,0.54,0,0.73c-0.1,0.29-0.15,0.58-0.15,0.88
				c-0.1,0.99-0.22,1.8-0.38,2.44c-0.14,0.62-0.26,1.19-0.35,1.69c-0.49,2.45-1.08,5.04-1.77,7.79c-0.68,2.74-1.52,5.62-2.5,8.67
				c-0.58,1.77-1.34,3.97-2.27,6.62c-0.93,2.64-2.04,5.68-3.31,9.1c-0.2,0.58-0.34,0.97-0.44,1.17c-0.39,1.28-0.78,2.48-1.17,3.6
				C46.63-1.7,46.24-0.64,45.84,0.34z"/>
		</g>
	</g>
</g>
<g>
	<g transform="translate(107.751701, 156.656357)">
		<g>
			<path d="M80.25,53.24c-3.74,1.38-7.27,1.18-10.58-0.58c-5.29-2.73-10.05-8.86-14.27-18.38c-3.03-6.96-5.82-15.43-8.38-25.42
				C45.06,1.21,43.88-4.86,43.5-9.36c-0.29-2.84-0.29-5.98,0-9.42c0.09-0.97,0.21-2.19,0.35-3.67c0.15-1.47,0.38-3.19,0.67-5.15
				v-0.15c0.19-1.38,0.34-2.59,0.44-3.67c0.09-1.08,0.19-1.96,0.29-2.65c0.21-1.67,0.36-4.17,0.46-7.5
				c0.09-0.98,0.15-1.84,0.15-2.56c0-0.73,0.05-1.35,0.15-1.85c0.39-7.73,1.56-13.81,3.52-18.23c0.48-0.78,1.12-1.36,1.92-1.75
				c0.88-0.29,1.76-0.29,2.65,0c0.78,0.49,1.36,1.12,1.75,1.92c0.3,0.97,0.26,1.85-0.15,2.62c-0.78,1.88-1.42,4.14-1.92,6.79
				c-0.49,2.64-0.83,5.67-1.02,9.08c-0.1,0.41-0.15,0.97-0.15,1.71c0,0.72-0.05,1.58-0.15,2.56c-0.2,3.62-0.34,6.22-0.44,7.79
				c-0.1,1.57-0.39,3.77-0.88,6.6v0.15c-0.5,3.93-0.8,6.78-0.9,8.54c-0.29,2.93-0.29,5.62,0,8.08c0.19,2.16,0.58,4.66,1.17,7.5
				c0.59,2.83,1.34,6.11,2.23,9.83c2.34,9.52,4.99,17.6,7.94,24.25c3.72,8.24,7.44,13.29,11.17,15.15c1.67,0.88,3.38,0.97,5.15,0.29
				c2.44-0.78,4.89-2.83,7.33-6.17c6.18-7.65,10.69-23.57,13.52-47.77c1.76-16.07,2.65-34.15,2.65-54.23c0-0.98,0.34-1.82,1.04-2.5
				c0.78-0.59,1.61-0.9,2.5-0.9c0.88,0,1.66,0.3,2.35,0.9c0.58,0.68,0.88,1.52,0.88,2.5c0,20.47-0.89,38.79-2.65,54.96
				c-1.38,11.57-3.14,21.37-5.29,29.4c-2.45,9.71-5.68,17.01-9.71,21.9C87.2,49.14,83.77,51.88,80.25,53.24z"/>
		</g>
	</g>
</g>
<g>
	<g transform="translate(158.349913, 156.656357)">
		<g>
			<path d="M81.97,51.34c-0.99,0-1.77-0.34-2.35-1.04c-0.68-0.68-1.02-1.46-1.02-2.35c0-0.97-0.08-2.24-0.23-3.81
				c-0.16-1.57-0.33-3.43-0.52-5.58c-0.1-1.67-0.39-3.88-0.88-6.62c0-0.09,0-0.31,0-0.65c0-0.34-0.05-0.76-0.15-1.25
				c-0.1-0.5-0.18-1.01-0.23-1.54c-0.04-0.54-0.11-1.11-0.21-1.71c-0.1-0.48-0.18-0.92-0.23-1.31c-0.04-0.39-0.06-0.68-0.06-0.88
				c-0.2-1.67-0.4-3.19-0.6-4.56c-0.2-1.38-0.39-2.65-0.58-3.81c-0.39-3.83-0.71-7.29-0.96-10.38c-0.24-3.08-0.41-5.84-0.5-8.29
				c-0.2-6.96,0.09-15.68,0.88-26.17c0.09-0.98,0.19-2.16,0.29-3.52c0.09-1.38,0.19-2.99,0.29-4.85c0.39-4.9,0.71-9.19,0.96-12.85
				c0.25-3.68,0.42-6.65,0.52-8.92c-2.25-0.19-4.43-0.31-6.54-0.35c-2.11-0.05-4.1,0.02-5.96,0.21c-0.97,0.1-1.81-0.19-2.5-0.88
				c-0.58-0.48-0.97-1.27-1.17-2.35c-0.1-0.88,0.19-1.66,0.88-2.35c0.48-0.58,1.22-0.97,2.21-1.17c3.43-0.29,7.15-0.29,11.17,0
				c1.38,0.1,2.94,0.24,4.71,0.44c1.76,0.2,3.72,0.44,5.88,0.73c0.19,0,0.41,0,0.65,0c0.25,0,0.57,0.05,0.98,0.15
				c3.72,0.5,7.03,0.9,9.92,1.19c2.89,0.29,5.26,0.44,7.12,0.44c0.98,0,1.82,0.29,2.5,0.88c0.58,0.7,0.88,1.48,0.88,2.35
				c0,0.89-0.29,1.72-0.88,2.5c-0.68,0.7-1.52,1.04-2.5,1.04c-2.06,0-4.58-0.15-7.56-0.44c-2.99-0.3-6.49-0.7-10.52-1.19
				c-0.39-0.09-0.68-0.15-0.88-0.15c-0.2,0-0.39-0.05-0.58-0.15c-0.2,0-0.4,0-0.6,0c-0.2,0-0.39,0-0.58,0
				c-0.1,4.41-0.54,11.56-1.31,21.46c-0.1,1.86-0.2,3.45-0.29,4.77c-0.1,1.32-0.2,2.47-0.29,3.46c-0.7,10.29-0.99,18.81-0.9,25.56
				c0.09,2.27,0.27,4.92,0.52,7.96c0.25,3.03,0.57,6.41,0.96,10.12c0.19,1.08,0.36,2.31,0.5,3.69c0.15,1.36,0.32,2.88,0.52,4.54
				c0.19,0.41,0.34,1.14,0.44,2.21c0.09,0.58,0.17,1.15,0.21,1.69c0.05,0.54,0.13,1.06,0.23,1.54c0.11,0.5,0.17,0.93,0.17,1.27
				c0,0.33,0,0.55,0,0.65c0.19,1.38,0.34,2.62,0.44,3.75c0.09,1.12,0.19,2.08,0.29,2.88c0.19,0.88,0.31,1.71,0.35,2.5
				c0.05,0.78,0.13,1.51,0.23,2.19c0.09,0.1,0.15,0.18,0.15,0.23c0,0.04,0.05,0.11,0.15,0.21c0,0.31,0.05,0.56,0.15,0.75
				c0,0.29,0.05,0.49,0.15,0.58c0,0.1,0,0.27,0,0.52c0,0.24,0,0.5,0,0.79c0,0.6,0.05,0.95,0.15,1.04c0.19,1.18-0.05,2.16-0.73,2.94
				c-0.1,0.1-0.15,0.2-0.15,0.29C84.12,50.8,83.14,51.34,81.97,51.34z"/>
		</g>
	</g>
</g>
<g>
	<g transform="translate(195.499245, 156.656357)">
		<g>
			<path d="M91.12,51.64c-6.38-2.36-11.23-9.91-14.56-22.65C73.63,17.82,72.31,5.23,72.6-8.78c0.29-14.59,2.44-26.8,6.46-36.6
				c1.08-2.73,2.33-5.13,3.75-7.19c1.42-2.05,2.91-3.86,4.48-5.44c3.23-2.94,6.71-4.61,10.44-5c0.48-0.79,1.17-1.33,2.06-1.62
				c0.88-0.19,1.71-0.05,2.5,0.44c7.54,4.22,12.83,13.34,15.88,27.35c2.64,12.14,3.32,25.56,2.06,40.27
				c-1.38,14.89-4.22,26.74-8.54,35.56c-2.54,5.1-5.33,8.72-8.38,10.88C99.49,52.71,95.42,53.3,91.12,51.64z M93.48,45.3
				c1.96,0.7,3.96,0.35,6.02-1.02c2.15-1.47,4.21-4.21,6.17-8.23c4.01-8.33,6.61-19.4,7.79-33.21c1.18-14.32,0.54-27.06-1.92-38.23
				c-2.25-10.29-5.62-17.4-10.12-21.31c-0.21,0.1-0.41,0.18-0.6,0.23c-0.2,0.04-0.39,0.06-0.58,0.06c-6.17,0-11.17,4.56-15,13.67
				c-3.62,8.72-5.58,20.09-5.88,34.1c-0.1,6.67,0.17,12.99,0.81,18.98c0.64,5.97,1.65,11.66,3.02,17.04
				C85.92,37.78,89.35,43.75,93.48,45.3z"/>
		</g>
	</g>
</g>
<g>
	<g transform="translate(233.640707, 156.656357)">
		<g>
			<path d="M122.04,51.64c-6.07,1.86-12.24-0.09-18.5-5.88c-0.1-0.09-0.18-0.19-0.23-0.29c-0.06-0.11-0.18-0.21-0.38-0.31
				c-0.29-0.19-0.54-0.39-0.73-0.58c-1.28-1.28-2.41-2.4-3.4-3.38c-0.97-0.98-1.8-1.86-2.48-2.65c-2.16-2.65-3.77-5.25-4.85-7.79
				C86.77,19.19,84.76,5.67,85.46-9.8c0.58-14.4,3.32-27.68,8.23-39.83c2.25-5.58,5.33-9.9,9.25-12.94
				c3.93-3.14,7.9-4.85,11.92-5.15c4.11-0.19,8.07,1.08,11.9,3.83c3.82,2.83,6.86,6.99,9.12,12.48c0.39,0.79,0.44,1.68,0.15,2.65
				c-0.5,0.89-1.14,1.48-1.92,1.77c-0.88,0.39-1.76,0.39-2.65,0c-0.88-0.29-1.47-0.88-1.77-1.77c-1.57-4.01-3.68-7.09-6.31-9.25
				c-2.54-2.05-5.33-2.98-8.38-2.79c-2.95,0.1-5.79,1.37-8.52,3.81c-2.85,2.56-5.06,5.84-6.62,9.85
				c-2.25,5.68-4.02,11.66-5.29,17.94c-1.28,6.27-2.11,12.83-2.5,19.69c-0.58,14.5,1.28,27.04,5.58,37.62
				c0.89,1.86,2.17,3.87,3.83,6.02c0.58,0.7,1.31,1.51,2.19,2.44c0.89,0.93,1.97,1.93,3.25,3c0.09,0.1,0.19,0.18,0.29,0.23
				c0.09,0.04,0.19,0.16,0.29,0.35l0.58,0.6c4.32,4.11,8.29,5.58,11.92,4.4c3.43-1.07,6.36-3.96,8.81-8.67
				c2.44-4.4,3.96-9.55,4.56-15.44c0.58-5.48,0.04-9.65-1.62-12.48c-0.58-1.08-2.64-1.38-6.17-0.9c-0.29,0-0.59,0.05-0.9,0.15
				c-1.27,0.1-2.34,0.2-3.23,0.31c-0.88,0.1-1.61,0.1-2.21,0c-2.45-0.21-4.35-0.94-5.73-2.21c-0.68-0.69-1.02-1.53-1.02-2.5
				c0-0.89,0.34-1.67,1.02-2.35c0.59-0.69,1.38-1.04,2.35-1.04c0.98,0,1.77,0.35,2.35,1.04c0.09,0,0.19,0.05,0.29,0.15
				c0.19,0.1,0.54,0.15,1.04,0.15c0.39,0,0.95-0.02,1.69-0.06c0.73-0.05,1.59-0.13,2.56-0.23c0.29-0.09,0.64-0.15,1.04-0.15
				c2.64-0.29,4.74-0.29,6.31,0c2.84,0.49,4.95,1.85,6.31,4.1c2.36,4.03,3.24,9.37,2.65,16.02c-0.58,6.86-2.4,13.08-5.44,18.67
				C131.36,46,127.14,49.97,122.04,51.64z"/>
		</g>
	</g>
</g>
<g>
	<g transform="translate(276.853064, 156.656357)">
		<g>
			<path d="M135.14,55.01c-0.88-0.49-1.61-1.18-2.21-2.06c-0.1-0.2-0.24-0.46-0.44-0.79c-0.2-0.34-0.39-0.71-0.58-1.1
				c-0.39-0.79-0.79-1.65-1.19-2.58c-0.39-0.93-0.83-2.03-1.31-3.31c-0.79-2.15-1.68-4.59-2.67-7.33c-0.97-2.75-1.99-5.79-3.06-9.13
				c-1.67-5.29-3.12-10.04-4.35-14.25c-1.22-4.21-2.22-7.83-3-10.88c-2.45,0.39-5.09,0.68-7.94,0.88c-0.1,1.47-0.18,2.95-0.23,4.42
				c-0.04,1.47-0.06,2.94-0.06,4.4c0,0.1,0,0.37,0,0.81c0,0.45-0.05,1.06-0.15,1.83c-0.1,0.79-0.2,1.66-0.29,2.58
				c-0.1,0.93-0.2,1.89-0.29,2.85l-0.15,2.79c-0.11,1.18-0.2,2.29-0.25,3.31c-0.04,1.03-0.11,2.04-0.21,3.02
				c-0.1,2.74-0.2,5.14-0.29,7.21c-0.1,2.06-0.1,3.77,0,5.12c0,0.41,0,0.78,0,1.12c0,0.33,0.05,0.6,0.15,0.79
				c0.09,0.1,0.19,0.2,0.29,0.29c0.09,0.1,0.2,0.2,0.31,0.29c0.58,0.79,0.82,1.62,0.73,2.5c-0.1,0.99-0.54,1.72-1.33,2.21
				c-1.46,1.28-3.02,1.38-4.69,0.29c-0.79-0.68-1.33-1.56-1.62-2.65c-0.39-0.88-0.58-2.39-0.58-4.54c-0.1-1.57-0.1-3.43,0-5.58
				c0.09-2.17,0.19-4.67,0.29-7.5c0.09-0.98,0.17-1.99,0.21-3.02c0.05-1.03,0.13-2.13,0.23-3.31c0-0.19,0.02-0.53,0.06-1.02
				c0.05-0.48,0.13-1.22,0.23-2.21c0.09-0.88,0.17-1.73,0.21-2.56c0.05-0.83,0.13-1.65,0.23-2.44c0.09-0.78,0.15-1.34,0.15-1.69
				c0-0.34,0-0.57,0-0.67c0.09-3.72,0.29-8.15,0.58-13.29c0.3-5.14,0.75-10.99,1.33-17.56c0.09-0.39,0.15-0.85,0.15-1.4
				c0-0.54,0.05-1.2,0.15-1.98c0.39-4.22,0.73-7.88,1.02-10.96c0.3-3.08,0.51-5.7,0.6-7.85c0.19-3.43,0.36-6.71,0.5-9.85
				c0.15-3.14,0.23-6.07,0.23-8.81c0-0.69,0.15-1.23,0.44-1.62c-0.1-0.68,0.09-1.46,0.58-2.35c0.4-0.68,1.04-1.17,1.92-1.46
				c9.21-2.46,17.15-0.16,23.81,6.9c5.68,5.97,8.92,13.86,9.71,23.67c0.58,10.2-1.82,18.72-7.21,25.58
				c-3.14,4.11-7.26,7.29-12.35,9.54c0.69,2.85,1.65,6.35,2.88,10.52c1.22,4.16,2.71,8.93,4.48,14.31c1.08,3.33,2.09,6.35,3.02,9.04
				c0.93,2.7,1.78,5.12,2.56,7.27c0.48,1.08,0.9,2.07,1.25,2.96c0.34,0.88,0.67,1.6,0.96,2.19c0.19,0.31,0.34,0.56,0.44,0.75
				c0.09,0.2,0.19,0.39,0.29,0.58c1.38,0.97,1.67,2.29,0.9,3.96c-0.31,0.69-0.9,1.28-1.77,1.77
				C136.89,55.3,136.01,55.3,135.14,55.01z M108.82-2.3c9.11-0.3,16.11-3.54,21.02-9.71c4.3-5.58,6.21-12.59,5.73-21.02
				c-0.58-8.12-3.18-14.64-7.79-19.54c-4.21-4.51-9.25-6.28-15.12-5.29c0,2.74-0.08,5.62-0.23,8.67c-0.16,3.04-0.33,6.28-0.52,9.71
				c-0.1,2.16-0.29,4.8-0.58,7.94c-0.29,3.12-0.64,6.8-1.02,11.02c-0.1,0.78-0.15,1.44-0.15,1.98s-0.05,1.01-0.15,1.4
				c-0.21,3.04-0.41,5.79-0.6,8.23C109.21-6.48,109.02-4.27,108.82-2.3z"/>
		</g>
	</g>
</g>
<g>
	<g transform="translate(310.915762, 156.656357)">
		<g>
			<path d="M157.22,51.93c-0.29,0.88-0.83,1.56-1.62,2.06c-0.78,0.39-1.66,0.44-2.65,0.15c-0.78-0.29-1.41-0.83-1.9-1.62
				c-0.5-0.97-0.6-1.85-0.29-2.65c0.48-1.57,0.8-3.96,0.94-7.19c0.15-3.23,0.03-7.26-0.35-12.06c-0.39-6.76-1.27-15.09-2.65-24.98
				c-0.1,0-0.15,0-0.15,0s-0.05,0-0.15,0c-1.86,0.68-4.12,1.12-6.77,1.31c-0.68,0.1-1.58,0.12-2.71,0.08
				c-1.12-0.05-2.38-0.13-3.75-0.23h-0.15c-2.56-0.19-4.42-0.19-5.58,0c-0.99,0-1.85,0.08-2.58,0.23c-0.74,0.14-1.45,0.31-2.12,0.5
				c-0.29,0.1-0.69,0.15-1.19,0.15c-0.39,1.08-0.73,2.14-1.02,3.17c-0.29,1.03-0.58,2.08-0.88,3.17c-1.08,3.72-1.95,7.35-2.58,10.88
				c-0.64,3.53-1.06,6.86-1.25,10c-0.2,1.07-0.58,1.85-1.17,2.33c-0.79,0.6-1.58,0.85-2.35,0.75c-0.99,0-1.77-0.34-2.35-1.04
				c-0.68-0.68-0.97-1.51-0.88-2.5c0.39-6.86,1.71-14.26,3.96-22.19c0.79-2.54,1.77-5.55,2.94-9.02c1.18-3.48,2.55-7.48,4.12-12
				c0.09-0.09,0.24-0.48,0.44-1.17c1.28-3.43,2.35-6.42,3.23-8.96c0.89-2.55,1.62-4.71,2.21-6.48c0.98-2.84,1.82-5.57,2.5-8.17
				c0.68-2.59,1.22-5.07,1.62-7.42c0.09-0.48,0.19-1.05,0.29-1.69c0.09-0.64,0.19-1.34,0.29-2.12c0-0.19,0.02-0.48,0.06-0.88
				c0.05-0.4,0.13-0.94,0.23-1.62c0.19-1.38,0.34-2.21,0.44-2.5c0.19-1.38,0.39-2.65,0.58-3.81c0.19-1.18,0.4-2.17,0.6-2.96
				c0.48-2.54,1.07-4.3,1.75-5.29c0.39-0.68,0.88-1.17,1.48-1.46c1.07-0.69,2.15-0.79,3.23-0.29c0.88,0.2,1.51,0.64,1.92,1.31
				c0.19,0.2,0.36,0.42,0.5,0.67c0.15,0.25,0.28,0.52,0.38,0.81c0.68,1.57,1.42,4.46,2.21,8.67c0.09,0.2,0.21,0.81,0.35,1.83
				c0.15,1.03,0.42,2.52,0.81,4.48c0.79,3.82,1.23,6.32,1.33,7.5c0.68,3.62,1.29,7.14,1.83,10.52c0.54,3.38,1.05,6.58,1.54,9.62
				c0.48,3.03,0.95,5.92,1.4,8.67c0.44,2.74,0.86,5.39,1.25,7.94c1.76,12.74,2.94,23.32,3.52,31.75
				C158.79,40.76,158.49,48.01,157.22,51.93z M126.05,0.34c0.5-0.09,1.01-0.17,1.54-0.23c0.54-0.05,1.06-0.08,1.56-0.08
				c1.36-0.19,3.42-0.19,6.17,0h0.15c1.38,0.11,2.53,0.2,3.46,0.25c0.93,0.04,1.73,0.02,2.42-0.08c1.76-0.11,3.33-0.41,4.71-0.9
				c0.78-0.19,1.36-0.24,1.75-0.15c-0.39-2.54-0.78-5.16-1.17-7.85c-0.39-2.69-0.83-5.46-1.31-8.31c-0.5-3.04-1.02-6.25-1.56-9.62
				c-0.53-3.38-1.14-6.87-1.83-10.5c-0.1-0.5-0.32-1.63-0.67-3.4c-0.33-1.76-0.74-4.21-1.23-7.33c-0.1,0.2-0.15,0.42-0.15,0.67
				c0,0.24-0.06,0.5-0.17,0.79c-0.1,0.29-0.15,0.59-0.15,0.9c0,0.29,0,0.54,0,0.73c-0.1,0.29-0.15,0.58-0.15,0.88
				c-0.1,0.99-0.22,1.8-0.38,2.44c-0.14,0.62-0.26,1.19-0.35,1.69c-0.49,2.45-1.08,5.04-1.77,7.79c-0.68,2.74-1.52,5.62-2.5,8.67
				c-0.58,1.77-1.34,3.97-2.27,6.62c-0.93,2.64-2.04,5.68-3.31,9.1c-0.2,0.58-0.34,0.97-0.44,1.17c-0.39,1.28-0.78,2.48-1.17,3.6
				C126.85-1.7,126.45-0.64,126.05,0.34z"/>
		</g>
	</g>
</g>
<g>
	<g transform="translate(348.395777, 156.656357)">
		<g>
			<path d="M139.15,53.84c-1.18,0.48-2.31,0.33-3.4-0.46c-0.29-0.2-0.64-0.58-1.02-1.17c-0.68-0.78-1.22-2.09-1.62-3.96
				c-0.68-2.26-1.27-4.71-1.75-7.35c-0.41-1.96-0.78-4.41-1.12-7.35c-0.33-2.94-0.6-6.38-0.79-10.29c-0.1-3.53-0.24-6.17-0.44-7.94
				c-0.1-0.19-0.15-0.44-0.15-0.73c0-0.29,0-0.53,0-0.73c-0.1-0.79-0.4-3.24-0.9-7.35c-0.97-0.19-1.7-0.59-2.19-1.19
				c-0.6-0.58-0.9-1.26-0.9-2.04c-0.2-1.76,0.59-2.9,2.35-3.4c-0.2-2.15-0.37-3.91-0.52-5.27c-0.14-1.38-0.26-2.31-0.35-2.81
				c-0.29-2.73-0.56-5.35-0.81-7.85s-0.47-4.82-0.67-6.98c-1.77-19.89-1.77-32.97,0-39.25c0.09-0.97,0.64-1.71,1.62-2.21
				c0.58-0.39,1.42-0.48,2.5-0.29c0.19,0.1,0.39,0.2,0.58,0.29c0.19,0.1,0.39,0.2,0.58,0.29c4.12-0.48,9.03-0.84,14.71-1.08
				c5.68-0.25,12.09-0.38,19.25-0.38c0.97,0,1.8,0.29,2.5,0.88c0.58,0.7,0.88,1.48,0.88,2.35c0,0.89-0.29,1.72-0.88,2.5
				c-0.7,0.68-1.53,1.02-2.5,1.02c-7.16,0-13.5,0.12-19.04,0.38c-5.53,0.25-10.31,0.62-14.33,1.1c-0.88,6.57-0.58,17.84,0.9,33.81
				c0.19,2.16,0.41,4.46,0.65,6.92c0.25,2.45,0.52,5.04,0.81,7.77c0.09,0.99,0.4,3.87,0.9,8.67c0.09,0,0.17,0,0.21,0
				c0.05,0,0.13,0,0.23,0c1.38,0.1,2.59,0.15,3.67,0.15c1.08,0,2.01,0,2.79,0c6.18-0.19,10.05-0.68,11.62-1.46
				c0.78-0.48,1.61-0.63,2.5-0.44c0.88,0.1,1.55,0.58,2.04,1.46c0.5,0.89,0.65,1.77,0.44,2.65c-0.2,0.89-0.73,1.58-1.6,2.06
				c-2.46,1.47-7.46,2.31-15,2.5c-0.78,0-1.68,0-2.71,0c-1.03,0-2.18-0.05-3.46-0.15c0.19,1.86,0.36,3.33,0.5,4.42
				c0.15,1.07,0.23,1.8,0.23,2.19c0.09,0.2,0.15,0.45,0.15,0.75c0,0.29,0,0.54,0,0.73c0.09,0.97,0.19,2.15,0.29,3.52
				c0.09,1.38,0.19,2.99,0.29,4.85c0.4,7.35,0.99,12.89,1.77,16.6c0.19,1.18,0.42,2.33,0.67,3.46s0.57,2.23,0.96,3.31
				c0,0.2,0.05,0.34,0.15,0.44c1.67,0.68,2.3,1.95,1.92,3.81c-0.11,0.21-0.2,0.44-0.25,0.69c-0.04,0.24-0.11,0.45-0.21,0.65
				C140.8,52.9,140.12,53.54,139.15,53.84z"/>
		</g>
	</g>
</g>
<g>
	<g transform="translate(383.340345, 156.656357)">
		<g>
			<path d="M150.8,53.84c-1.18,0.48-2.31,0.33-3.4-0.46c-0.29-0.2-0.64-0.58-1.02-1.17c-0.68-0.78-1.22-2.09-1.62-3.96
				c-0.68-2.26-1.27-4.71-1.75-7.35c-0.41-1.96-0.78-4.41-1.12-7.35c-0.33-2.94-0.6-6.38-0.79-10.29c-0.1-3.53-0.24-6.17-0.44-7.94
				c-0.1-0.19-0.15-0.44-0.15-0.73c0-0.29,0-0.53,0-0.73c-0.1-0.79-0.4-3.24-0.9-7.35c-0.97-0.19-1.7-0.59-2.19-1.19
				c-0.6-0.58-0.9-1.26-0.9-2.04c-0.2-1.76,0.59-2.9,2.35-3.4c-0.2-2.15-0.37-3.91-0.52-5.27c-0.14-1.38-0.26-2.31-0.35-2.81
				c-0.29-2.73-0.56-5.35-0.81-7.85s-0.47-4.82-0.67-6.98c-1.77-19.89-1.77-32.97,0-39.25c0.09-0.97,0.64-1.71,1.62-2.21
				c0.58-0.39,1.42-0.48,2.5-0.29c0.19,0.1,0.39,0.2,0.58,0.29c0.19,0.1,0.39,0.2,0.58,0.29c4.12-0.48,9.03-0.84,14.71-1.08
				c5.68-0.25,12.09-0.38,19.25-0.38c0.97,0,1.8,0.29,2.5,0.88c0.58,0.7,0.88,1.48,0.88,2.35c0,0.89-0.29,1.72-0.88,2.5
				c-0.7,0.68-1.53,1.02-2.5,1.02c-7.16,0-13.5,0.12-19.04,0.38c-5.53,0.25-10.31,0.62-14.33,1.1c-0.88,6.57-0.58,17.84,0.9,33.81
				c0.19,2.16,0.41,4.46,0.65,6.92c0.25,2.45,0.52,5.04,0.81,7.77c0.09,0.99,0.4,3.87,0.9,8.67c0.09,0,0.17,0,0.21,0
				c0.05,0,0.13,0,0.23,0c1.38,0.1,2.59,0.15,3.67,0.15c1.08,0,2.01,0,2.79,0c6.18-0.19,10.05-0.68,11.62-1.46
				c0.78-0.48,1.61-0.63,2.5-0.44c0.88,0.1,1.55,0.58,2.04,1.46c0.5,0.89,0.65,1.77,0.44,2.65c-0.2,0.89-0.73,1.58-1.6,2.06
				c-2.46,1.47-7.46,2.31-15,2.5c-0.78,0-1.68,0-2.71,0c-1.03,0-2.18-0.05-3.46-0.15c0.19,1.86,0.36,3.33,0.5,4.42
				c0.15,1.07,0.23,1.8,0.23,2.19c0.09,0.2,0.15,0.45,0.15,0.75c0,0.29,0,0.54,0,0.73c0.09,0.97,0.19,2.15,0.29,3.52
				c0.09,1.38,0.19,2.99,0.29,4.85c0.4,7.35,0.99,12.89,1.77,16.6c0.19,1.18,0.42,2.33,0.67,3.46s0.57,2.23,0.96,3.31
				c0,0.2,0.05,0.34,0.15,0.44c1.67,0.68,2.3,1.95,1.92,3.81c-0.11,0.21-0.2,0.44-0.25,0.69c-0.04,0.24-0.11,0.45-0.21,0.65
				C152.45,52.9,151.77,53.54,150.8,53.84z"/>
		</g>
	</g>
</g>
<g>
	<g transform="translate(418.284913, 156.656357)">
		<g>
			<path d="M150.97,52.66c-0.68-0.29-1.22-0.78-1.6-1.46c-0.1-0.19-0.18-0.42-0.23-0.67c-0.04-0.25-0.11-0.47-0.21-0.67
				c-0.11-0.58-0.11-1.61,0-3.08c0.19-2.65,0.34-4.56,0.44-5.73c0.58-3.14,0.28-7.94-0.9-14.42c0-0.19,0-0.39,0-0.58
				c0-0.19-0.05-0.44-0.15-0.73c-0.49-2.84-0.85-5.32-1.1-7.42c-0.24-2.11-0.35-3.85-0.35-5.23c0-15.78,0.09-29.86,0.29-42.25
				c0.19-12.4,0.48-23.06,0.88-31.98c0.19-1.07,0.59-1.9,1.19-2.48c0.78-0.59,1.61-0.9,2.5-0.9c0.97,0.2,1.75,0.59,2.33,1.19
				c0.59,0.78,0.84,1.61,0.75,2.5c-0.41,8.92-0.7,19.55-0.9,31.9c-0.2,12.33-0.29,26.34-0.29,42.02c0,2.36,0.44,6.18,1.33,11.46
				c0.09,0.31,0.15,0.56,0.15,0.75c0,0.2,0.05,0.39,0.15,0.58c0.29,1.67,0.51,3.19,0.65,4.56c0.15,1.36,0.28,2.58,0.38,3.67
				c0.29,3.04,0.19,5.93-0.29,8.67c0,0.1,0,0.27,0,0.52s-0.05,0.62-0.15,1.1c-0.1,0.58-0.15,1.12-0.15,1.62c0,0.49,0,0.97,0,1.46
				v0.15c0.58,0.99,0.68,1.97,0.29,2.94c-0.1,0.1-0.15,0.22-0.15,0.38c0,0.14-0.05,0.27-0.15,0.38c-0.2,0.39-0.34,0.64-0.44,0.73
				c-0.39,0.58-0.79,0.92-1.19,1.02C153.08,53.04,152.05,53.04,150.97,52.66z"/>
		</g>
	</g>
</g>
<g>
	<g transform="translate(427.434093, 156.656357)">
		<g>
			<path d="M171.66,51.34c-0.99,0-1.77-0.34-2.35-1.04c-0.68-0.68-1.02-1.46-1.02-2.35c0-0.97-0.08-2.24-0.23-3.81
				c-0.16-1.57-0.33-3.43-0.52-5.58c-0.1-1.67-0.39-3.88-0.88-6.62c0-0.09,0-0.31,0-0.65c0-0.34-0.05-0.76-0.15-1.25
				c-0.1-0.5-0.18-1.01-0.23-1.54c-0.04-0.54-0.11-1.11-0.21-1.71c-0.1-0.48-0.18-0.92-0.23-1.31c-0.04-0.39-0.06-0.68-0.06-0.88
				c-0.2-1.67-0.4-3.19-0.6-4.56c-0.2-1.38-0.39-2.65-0.58-3.81c-0.39-3.83-0.71-7.29-0.96-10.38c-0.24-3.08-0.41-5.84-0.5-8.29
				c-0.2-6.96,0.09-15.68,0.88-26.17c0.09-0.98,0.19-2.16,0.29-3.52c0.09-1.38,0.19-2.99,0.29-4.85c0.39-4.9,0.71-9.19,0.96-12.85
				c0.25-3.68,0.42-6.65,0.52-8.92c-2.25-0.19-4.43-0.31-6.54-0.35c-2.11-0.05-4.1,0.02-5.96,0.21c-0.97,0.1-1.81-0.19-2.5-0.88
				c-0.58-0.48-0.97-1.27-1.17-2.35c-0.1-0.88,0.19-1.66,0.88-2.35c0.48-0.58,1.22-0.97,2.21-1.17c3.43-0.29,7.15-0.29,11.17,0
				c1.38,0.1,2.94,0.24,4.71,0.44c1.76,0.2,3.72,0.44,5.88,0.73c0.19,0,0.41,0,0.65,0c0.25,0,0.57,0.05,0.98,0.15
				c3.72,0.5,7.03,0.9,9.92,1.19c2.89,0.29,5.26,0.44,7.12,0.44c0.98,0,1.82,0.29,2.5,0.88c0.58,0.7,0.88,1.48,0.88,2.35
				c0,0.89-0.29,1.72-0.88,2.5c-0.68,0.7-1.52,1.04-2.5,1.04c-2.06,0-4.58-0.15-7.56-0.44c-2.99-0.3-6.49-0.7-10.52-1.19
				c-0.39-0.09-0.68-0.15-0.88-0.15c-0.2,0-0.39-0.05-0.58-0.15c-0.2,0-0.4,0-0.6,0c-0.2,0-0.39,0-0.58,0
				c-0.1,4.41-0.54,11.56-1.31,21.46c-0.1,1.86-0.2,3.45-0.29,4.77c-0.1,1.32-0.2,2.47-0.29,3.46c-0.7,10.29-0.99,18.81-0.9,25.56
				c0.09,2.27,0.27,4.92,0.52,7.96c0.25,3.03,0.57,6.41,0.96,10.12c0.19,1.08,0.36,2.31,0.5,3.69c0.15,1.36,0.32,2.88,0.52,4.54
				c0.19,0.41,0.34,1.14,0.44,2.21c0.09,0.58,0.17,1.15,0.21,1.69c0.05,0.54,0.13,1.06,0.23,1.54c0.11,0.5,0.17,0.93,0.17,1.27
				c0,0.33,0,0.55,0,0.65c0.19,1.38,0.34,2.62,0.44,3.75c0.09,1.12,0.19,2.08,0.29,2.88c0.19,0.88,0.31,1.71,0.35,2.5
				c0.05,0.78,0.13,1.51,0.23,2.19c0.09,0.1,0.15,0.18,0.15,0.23c0,0.04,0.05,0.11,0.15,0.21c0,0.31,0.05,0.56,0.15,0.75
				c0,0.29,0.05,0.49,0.15,0.58c0,0.1,0,0.27,0,0.52c0,0.24,0,0.5,0,0.79c0,0.6,0.05,0.95,0.15,1.04c0.19,1.18-0.05,2.16-0.73,2.94
				c-0.1,0.1-0.15,0.2-0.15,0.29C173.82,50.8,172.84,51.34,171.66,51.34z"/>
		</g>
	</g>
</g>
<g>
	<g transform="translate(464.583409, 156.656357)">
		<g>
			<path d="M199.19,53.24c-3.74,1.38-7.27,1.18-10.58-0.58c-5.29-2.73-10.05-8.86-14.27-18.38c-3.03-6.96-5.82-15.43-8.38-25.42
				c-1.96-7.65-3.14-13.73-3.52-18.23c-0.29-2.84-0.29-5.98,0-9.42c0.09-0.97,0.21-2.19,0.35-3.67c0.15-1.47,0.38-3.19,0.67-5.15
				v-0.15c0.19-1.38,0.34-2.59,0.44-3.67c0.09-1.08,0.19-1.96,0.29-2.65c0.21-1.67,0.36-4.17,0.46-7.5
				c0.09-0.98,0.15-1.84,0.15-2.56c0-0.73,0.05-1.35,0.15-1.85c0.39-7.73,1.56-13.81,3.52-18.23c0.48-0.78,1.12-1.36,1.92-1.75
				c0.88-0.29,1.76-0.29,2.65,0c0.78,0.49,1.36,1.12,1.75,1.92c0.3,0.97,0.26,1.85-0.15,2.62c-0.78,1.88-1.42,4.14-1.92,6.79
				c-0.49,2.64-0.83,5.67-1.02,9.08c-0.1,0.41-0.15,0.97-0.15,1.71c0,0.72-0.05,1.58-0.15,2.56c-0.2,3.62-0.34,6.22-0.44,7.79
				c-0.1,1.57-0.39,3.77-0.88,6.6v0.15c-0.5,3.93-0.8,6.78-0.9,8.54c-0.29,2.93-0.29,5.62,0,8.08c0.19,2.16,0.58,4.66,1.17,7.5
				c0.59,2.83,1.34,6.11,2.23,9.83c2.34,9.52,4.99,17.6,7.94,24.25c3.72,8.24,7.44,13.29,11.17,15.15c1.67,0.88,3.38,0.97,5.15,0.29
				c2.44-0.78,4.89-2.83,7.33-6.17c6.18-7.65,10.69-23.57,13.52-47.77c1.76-16.07,2.65-34.15,2.65-54.23c0-0.98,0.34-1.82,1.04-2.5
				c0.78-0.59,1.61-0.9,2.5-0.9c0.88,0,1.66,0.3,2.35,0.9c0.58,0.68,0.88,1.52,0.88,2.5c0,20.47-0.89,38.79-2.65,54.96
				c-1.38,11.57-3.14,21.37-5.29,29.4c-2.45,9.71-5.68,17.01-9.71,21.9C206.14,49.14,202.72,51.88,199.19,53.24z"/>
		</g>
	</g>
</g>
<g>
	<g transform="translate(515.181638, 156.656357)">
		<g>
			<path d="M187.83,55.74c-0.99,0-1.77-0.34-2.35-1.02c-0.68-0.68-1.02-1.47-1.02-2.35v-0.15c0.09-1.96,0.07-4.51-0.08-7.65
				c-0.14-3.14-0.36-6.81-0.67-11.02c-0.1-3.14-0.39-7.3-0.88-12.5c0-0.29-0.15-2.4-0.44-6.31c-0.1-1.96-0.2-3.55-0.29-4.77
				c-0.1-1.22-0.2-2.08-0.29-2.58c-0.39-5.09-0.71-9.77-0.96-14.02c-0.25-4.26-0.47-8.11-0.67-11.54
				c-0.49-8.43-0.78-16.12-0.88-23.08c-0.1-6.96-0.05-13.18,0.15-18.67c0-0.88,0.34-1.66,1.02-2.35c0.79-0.58,1.62-0.88,2.5-0.88
				c0.79,0.2,1.33,0.39,1.62,0.58c10.39-5,19.84-4.26,28.35,2.21c7.94,6.07,13.63,16.02,17.06,29.83
				c3.23,13.33,3.38,26.66,0.44,39.98c-3.04,14.7-9.41,26.16-19.1,34.4c-1.67,1.38-5.69,3.53-12.06,6.46
				c-2.93,1.47-5.28,2.5-7.04,3.08c-0.2,0.09-0.42,0.15-0.67,0.15s-0.47,0.05-0.67,0.17C190.33,55.06,189.3,55.74,187.83,55.74z
				 M191.79,46.34c0.69-0.29,1.43-0.61,2.21-0.96c0.79-0.34,1.62-0.71,2.5-1.1c2.55-1.08,4.86-2.26,6.92-3.52
				c0.48-0.29,0.92-0.56,1.31-0.81c0.4-0.25,0.8-0.47,1.19-0.67c0.29-0.19,0.51-0.34,0.65-0.44c0.15-0.09,0.28-0.19,0.38-0.29
				c8.53-7.15,14.16-17.34,16.9-30.58c2.65-12.33,2.51-24.67-0.44-37.02c-2.93-12.05-7.78-20.68-14.54-25.88
				c-6.67-5.19-14.27-5.48-22.79-0.88c-0.29,9.99,0.01,22.38,0.9,37.17c0.19,3.43,0.41,7.26,0.65,11.48
				c0.25,4.21,0.57,8.86,0.96,13.96c0.09,0.49,0.19,1.35,0.29,2.58c0.09,1.22,0.19,2.81,0.29,4.77c0.3,3.92,0.46,6.07,0.46,6.46
				c0.48,5.2,0.78,9.36,0.88,12.5c0.19,2.74,0.34,5.24,0.44,7.5c0.09,0.1,0.17,0.22,0.21,0.38c0.05,0.14,0.13,0.31,0.23,0.5
				c0.09,0.1,0.15,0.29,0.15,0.58c0.09,0.2,0.15,0.69,0.15,1.48c0,0.1,0,0.18,0,0.23c0,0.04,0,0.11,0,0.21
				c0,0.39,0.05,0.64,0.15,0.73c0,0.1,0,0.2,0,0.29c0,0.1,0,0.2,0,0.29c0,0.21,0,0.39,0,0.54
				C191.79,45.98,191.79,46.15,191.79,46.34z"/>
		</g>
	</g>
</g>
<g>
	<g transform="translate(557.181362, 156.656357)">
		<g>
			<path d="M207.85,55.74c-2.74-0.2-4.84-0.88-6.31-2.04c-1.57-1.28-2.79-3.92-3.67-7.94c-0.41-1.57-0.78-3.41-1.12-5.52
				c-0.33-2.11-0.65-4.44-0.94-6.98c-0.39-4.32-0.79-9.29-1.19-14.92c-0.39-5.64-0.68-12.03-0.88-19.19
				c-0.2-6.67-0.34-13.96-0.44-21.9c-0.1-7.94-0.15-16.52-0.15-25.73v-2.79c0-0.09,0-0.21,0-0.35c0-0.15,0-0.38,0-0.67
				c0-0.48,0-0.95,0-1.4c0-0.44,0-0.81,0-1.1c0-1.28,0.15-2.35,0.44-3.23c0.39-1.76,1.32-2.94,2.79-3.54
				c1.18-0.48,2.5-0.68,3.96-0.58c0.89,0,1.97,0.15,3.25,0.44c0.19,0.1,0.36,0.15,0.5,0.15c0.15,0,0.28,0.05,0.38,0.15
				c0.88,0.21,1.58,0.36,2.12,0.46c0.54,0.1,0.86,0.15,0.96,0.15c1.86,0,4.06-0.15,6.6-0.44c2.55-0.3,5.5-0.7,8.83-1.19
				c0.09,0,0.21,0,0.35,0c0.15,0,0.32,0,0.52,0c2.75-0.48,5.15-0.84,7.21-1.08c2.05-0.25,3.77-0.42,5.15-0.52
				c0.88-0.11,1.71,0.14,2.5,0.73c0.58,0.49,0.97,1.22,1.17,2.21c0.09,0.88-0.15,1.71-0.73,2.5c-0.78,0.78-1.56,1.22-2.35,1.31
				c-1.28,0.1-2.93,0.27-4.94,0.52c-2,0.24-4.32,0.56-6.96,0.96c-0.31,0.1-0.56,0.15-0.75,0.15c-3.53,0.49-6.69,0.88-9.48,1.17
				c-2.79,0.29-5.17,0.44-7.12,0.44c-0.39,0-0.98-0.07-1.77-0.21c-0.78-0.15-1.71-0.32-2.79-0.52c-0.58-0.19-0.88-0.29-0.88-0.29
				c-0.49-0.09-0.93-0.17-1.33-0.21c-0.39-0.05-0.68-0.08-0.88-0.08c0,0.1,0,0.2,0,0.29c0,0.1,0,0.24,0,0.44c0,0.2,0,0.47,0,0.81
				c0,0.35,0,0.72,0,1.1c0,0.1,0,0.22,0,0.38c0,0.14,0,0.26,0,0.35c0,0.1,0,0.22,0,0.38c0,0.14,0,0.26,0,0.35v2.79
				c0,9.21,0.05,17.79,0.15,25.73c0.09,7.93,0.24,15.18,0.44,21.75c0,0.1,0,0.2,0,0.29c0,0.1,0,0.2,0,0.29
				c2.26,0.2,5.84,0.2,10.75,0c1.55-0.09,2.9-0.17,4.02-0.21c1.14-0.05,2.09-0.08,2.88-0.08c2.65,0,5.01,0.15,7.06,0.44
				c0.97,0.1,1.76,0.54,2.35,1.33c0.48,0.88,0.68,1.71,0.58,2.5c-0.1,0.97-0.54,1.71-1.33,2.21c-0.78,0.58-1.61,0.83-2.5,0.73
				c-1.36-0.19-3.1-0.31-5.21-0.35c-2.11-0.05-4.58-0.03-7.42,0.06c-2.46,0.1-4.6,0.18-6.42,0.23c-1.81,0.04-3.29,0.02-4.46-0.08
				c0.48,10.68,1.07,19.45,1.75,26.31c0.59,4.7,1.19,8.56,1.77,11.6c0.19,0.68,0.39,1.29,0.58,1.83c0.19,0.54,0.34,1.06,0.44,1.54
				c0.19,0.41,0.34,0.66,0.44,0.75v0.15c0.11,0.1,0.21,0.15,0.31,0.15c0.09,0,0.19,0.05,0.29,0.15c0.29,0.1,0.82,0.15,1.6,0.15
				c0.69,0,1.46-0.05,2.29-0.15c0.83-0.09,1.73-0.24,2.71-0.44c0.89-0.09,2.01-0.4,3.38-0.9c0.21,0,0.8-0.15,1.77-0.44
				c0.98-0.19,1.53-0.34,1.62-0.44c0.58-0.19,1.11-0.31,1.6-0.35c0.5-0.05,0.94-0.13,1.33-0.23c0.39-0.09,1.22-0.24,2.5-0.44
				c1.26-0.21,2.39-0.38,3.38-0.52c0.98-0.15,1.82-0.28,2.5-0.38c2.05-0.19,3.92-0.19,5.58,0c0.19,0,0.41,0.03,0.65,0.08
				c0.25,0.04,0.57,0.11,0.98,0.21c0.29,0,0.53,0.05,0.73,0.15c0.09,0,0.17,0,0.21,0c0.05,0,0.13,0,0.23,0
				c0.09,0.1,0.24,0.15,0.44,0.15c0.09,0.1,0.29,0.15,0.58,0.15c0.4,0.11,0.72,0.17,0.96,0.17c0.25,0,0.47,0.05,0.67,0.15
				c0.89-0.59,1.82-0.7,2.79-0.31c0.79,0.41,1.43,0.99,1.92,1.77c0.39,0.79,0.44,1.68,0.15,2.65c-0.49,1.28-1.37,2.11-2.65,2.5
				c-0.29,0.09-0.61,0.15-0.96,0.15c-0.35,0-0.72,0-1.1,0c-0.78,0-1.85-0.15-3.23-0.44c-0.1-0.09-0.34-0.15-0.73-0.15
				c-1.28-0.29-2.02-0.44-2.21-0.44c-1.28-0.19-2.75-0.19-4.42,0c-1.18,0.1-2.95,0.39-5.29,0.88c-1.28,0.09-2.16,0.24-2.65,0.44
				c-0.49,0-1.27,0.15-2.35,0.44c-0.1,0.09-0.64,0.25-1.6,0.46c-0.89,0.09-1.43,0.24-1.62,0.44c-1.47,0.39-2.74,0.68-3.81,0.88
				c-1.28,0.19-2.46,0.36-3.54,0.5C209.71,55.66,208.73,55.74,207.85,55.74z"/>
		</g>
	</g>
</g>
<g>
	<g transform="translate(74.915657, 184.917941)">
		<g>
			<path d="M31.14,61.85c-0.93,0-1.74-0.16-2.44-0.48c-0.7-0.32-1.27-0.75-1.73-1.29c-0.45-0.54-0.78-1.17-1-1.88
				c-0.22-0.72-0.33-1.47-0.33-2.25c0-0.79,0.11-1.54,0.33-2.25c0.22-0.71,0.55-1.33,1-1.88c0.46-0.55,1.03-0.98,1.73-1.29
				c0.69-0.32,1.51-0.48,2.44-0.48c0.94,0,1.76,0.16,2.46,0.48c0.69,0.31,1.27,0.74,1.73,1.29c0.46,0.54,0.8,1.17,1.02,1.88
				c0.22,0.71,0.33,1.46,0.33,2.25c0,0.78-0.11,1.53-0.33,2.25c-0.22,0.71-0.56,1.33-1.02,1.88c-0.46,0.54-1.04,0.97-1.73,1.29
				C32.9,61.69,32.08,61.85,31.14,61.85z M31.14,59.93c0.71,0,1.3-0.17,1.79-0.5c0.48-0.33,0.85-0.8,1.1-1.4
				c0.26-0.61,0.4-1.3,0.4-2.08c0-0.79-0.14-1.48-0.4-2.06c-0.25-0.59-0.62-1.06-1.1-1.4c-0.49-0.33-1.08-0.5-1.79-0.5
				c-0.68,0-1.27,0.17-1.77,0.5c-0.49,0.33-0.86,0.8-1.12,1.4c-0.25,0.58-0.38,1.27-0.38,2.06c0,0.78,0.12,1.47,0.38,2.08
				c0.26,0.6,0.64,1.06,1.12,1.4C29.86,59.76,30.45,59.93,31.14,59.93z"/>
		</g>
	</g>
</g>
<g>
	<g transform="translate(83.534534, 184.917941)">
		<g>
			<path d="M31.09,61.64h-2.15V50.26h4.9c0.71,0,1.33,0.12,1.88,0.35c0.54,0.24,0.96,0.6,1.27,1.1c0.3,0.49,0.46,1.12,0.46,1.9
				c0,0.74-0.16,1.37-0.46,1.9c-0.31,0.52-0.73,0.91-1.27,1.19c-0.54,0.27-1.17,0.4-1.88,0.4h-2.75V61.64z M31.09,52.2v3.02h2.46
				c0.57,0,1.01-0.12,1.31-0.38c0.3-0.26,0.46-0.65,0.46-1.15c0-0.48-0.16-0.85-0.48-1.1c-0.31-0.26-0.74-0.4-1.29-0.4H31.09z"/>
		</g>
	</g>
</g>
<g>
	<g transform="translate(90.431864, 184.917941)">
		<g>
			<path d="M33.39,61.64h-2.15V50.26h4.9c0.71,0,1.33,0.12,1.88,0.35c0.54,0.24,0.96,0.6,1.27,1.1c0.3,0.49,0.46,1.12,0.46,1.9
				c0,0.74-0.16,1.37-0.46,1.9c-0.31,0.52-0.73,0.91-1.27,1.19c-0.54,0.27-1.17,0.4-1.88,0.4h-2.75V61.64z M33.39,52.2v3.02h2.46
				c0.57,0,1.01-0.12,1.31-0.38c0.3-0.26,0.46-0.65,0.46-1.15c0-0.48-0.16-0.85-0.48-1.1c-0.31-0.26-0.74-0.4-1.29-0.4H33.39z"/>
		</g>
	</g>
</g>
<g>
	<g transform="translate(97.329195, 184.917941)">
		<g>
			<path d="M38.61,61.85c-0.93,0-1.74-0.16-2.44-0.48c-0.7-0.32-1.27-0.75-1.73-1.29c-0.45-0.54-0.78-1.17-1-1.88
				c-0.22-0.72-0.33-1.47-0.33-2.25c0-0.79,0.11-1.54,0.33-2.25c0.22-0.71,0.55-1.33,1-1.88c0.46-0.55,1.03-0.98,1.73-1.29
				c0.69-0.32,1.51-0.48,2.44-0.48c0.94,0,1.76,0.16,2.46,0.48c0.69,0.31,1.27,0.74,1.73,1.29c0.46,0.54,0.8,1.17,1.02,1.88
				c0.22,0.71,0.33,1.46,0.33,2.25c0,0.78-0.11,1.53-0.33,2.25c-0.22,0.71-0.56,1.33-1.02,1.88c-0.46,0.54-1.04,0.97-1.73,1.29
				C40.37,61.69,39.55,61.85,38.61,61.85z M38.61,59.93c0.71,0,1.3-0.17,1.79-0.5c0.48-0.33,0.85-0.8,1.1-1.4
				c0.26-0.61,0.4-1.3,0.4-2.08c0-0.79-0.14-1.48-0.4-2.06c-0.25-0.59-0.62-1.06-1.1-1.4c-0.49-0.33-1.08-0.5-1.79-0.5
				c-0.68,0-1.27,0.17-1.77,0.5c-0.49,0.33-0.86,0.8-1.12,1.4c-0.25,0.58-0.38,1.27-0.38,2.06c0,0.78,0.12,1.47,0.38,2.08
				c0.26,0.6,0.64,1.06,1.12,1.4C37.34,59.76,37.92,59.93,38.61,59.93z"/>
		</g>
	</g>
</g>
<g>
	<g transform="translate(105.948072, 184.917941)">
		<g>
			<path d="M43.13,56.7l2.04,4.94H42.9l-1.81-4.54h-2.52v4.54h-2.15V50.26h4.9c0.71,0,1.33,0.12,1.88,0.35
				c0.54,0.24,0.96,0.6,1.27,1.1c0.3,0.49,0.46,1.12,0.46,1.9c0,0.75-0.16,1.39-0.48,1.92C44.11,56.07,43.68,56.45,43.13,56.7z
				 M41.02,52.2h-2.46v3.02h2.46c0.57,0,1.01-0.12,1.31-0.38c0.3-0.26,0.46-0.65,0.46-1.15c0-0.48-0.16-0.85-0.48-1.1
				C42.01,52.34,41.57,52.2,41.02,52.2z"/>
		</g>
	</g>
</g>
<g>
	<g transform="translate(113.102513, 184.917941)">
		<g>
			<path d="M43.55,61.64h-2.15V52.2h-3.48v-1.94h9.08v1.94h-3.46V61.64z"/>
		</g>
	</g>
</g>
<g>
	<g transform="translate(119.597415, 184.917941)">
		<g>
			<path d="M45.42,61.85c-1.08,0-1.97-0.18-2.65-0.54c-0.67-0.36-1.16-0.86-1.48-1.52c-0.31-0.67-0.46-1.42-0.46-2.27v-7.25h2.17
				v7.25c0,0.47,0.07,0.89,0.21,1.25c0.15,0.36,0.41,0.65,0.77,0.85c0.36,0.21,0.84,0.31,1.44,0.31c0.61,0,1.09-0.1,1.44-0.31
				c0.36-0.21,0.61-0.49,0.77-0.85c0.15-0.36,0.23-0.78,0.23-1.25v-7.25h2.15v7.25c0,0.85-0.16,1.6-0.48,2.27
				c-0.31,0.66-0.8,1.16-1.48,1.52C47.38,61.67,46.51,61.85,45.42,61.85z"/>
		</g>
	</g>
</g>
<g>
	<g transform="translate(127.28844, 184.917941)">
		<g>
			<path d="M45.68,61.64h-2.15V50.26h2.4l4.67,8.15v-8.15h2.15v11.38h-2.42l-4.65-8.15V61.64z"/>
		</g>
	</g>
</g>
<g>
	<g transform="translate(135.180688, 184.917941)">
		<g>
			<path d="M48.31,61.64h-2.15V50.26h2.15V61.64z"/>
		</g>
	</g>
</g>
<g>
	<g transform="translate(137.763009, 184.917941)">
		<g>
			<path d="M51.52,61.85c-0.54,0-1.1-0.07-1.67-0.21c-0.56-0.12-1.07-0.33-1.54-0.62c-0.47-0.3-0.88-0.71-1.21-1.21
				c-0.32-0.5-0.52-1.11-0.58-1.85h2.23c0.12,0.53,0.32,0.95,0.6,1.25c0.29,0.31,0.62,0.52,1,0.65c0.39,0.11,0.78,0.17,1.19,0.17
				c0.58,0,1.07-0.12,1.46-0.38c0.4-0.25,0.6-0.65,0.6-1.19c0-0.4-0.14-0.71-0.4-0.92c-0.25-0.22-0.58-0.4-1-0.52
				c-0.41-0.12-0.85-0.23-1.33-0.33c-0.47-0.11-0.95-0.23-1.42-0.35c-0.46-0.14-0.89-0.32-1.27-0.54c-0.39-0.22-0.7-0.52-0.94-0.9
				c-0.24-0.39-0.35-0.88-0.35-1.48c0-0.73,0.17-1.34,0.52-1.83c0.36-0.5,0.84-0.88,1.44-1.12c0.61-0.26,1.3-0.4,2.06-0.4
				c0.73,0,1.42,0.14,2.06,0.4c0.65,0.27,1.2,0.66,1.65,1.19c0.44,0.52,0.73,1.19,0.85,2.02h-2.19c-0.14-0.61-0.43-1.05-0.88-1.33
				c-0.45-0.29-0.96-0.44-1.54-0.44c-0.54,0-0.99,0.12-1.33,0.35c-0.35,0.22-0.52,0.55-0.52,0.98c0,0.35,0.11,0.62,0.35,0.83
				c0.25,0.2,0.57,0.35,0.96,0.46c0.4,0.11,0.83,0.22,1.29,0.33c0.48,0.1,0.96,0.22,1.44,0.38c0.48,0.14,0.93,0.33,1.33,0.58
				c0.42,0.24,0.75,0.56,1,0.98c0.25,0.41,0.38,0.93,0.38,1.56c0,1.07-0.38,1.93-1.12,2.56C53.91,61.54,52.87,61.85,51.52,61.85z"/>
		</g>
	</g>
</g>
<g>
	<g transform="translate(144.995719, 184.917941)">
		<g>
			<path d="M54.18,61.64h-2.15V52.2h-3.48v-1.94h9.08v1.94h-3.46V61.64z"/>
		</g>
	</g>
</g>
<g>
	<g transform="translate(151.490625, 184.917941)">
		<g>
			<path d="M53.74,61.64H51.6V50.26h2.15V61.64z"/>
		</g>
	</g>
</g>
<g>
	<g transform="translate(154.072945, 184.917941)">
		<g>
			<path d="M57.52,61.85c-0.93,0-1.74-0.16-2.44-0.48c-0.7-0.32-1.27-0.75-1.73-1.29c-0.45-0.54-0.78-1.17-1-1.88
				c-0.22-0.72-0.33-1.47-0.33-2.25c0-0.79,0.11-1.54,0.33-2.25c0.22-0.71,0.55-1.33,1-1.88c0.46-0.55,1.03-0.98,1.73-1.29
				c0.69-0.32,1.51-0.48,2.44-0.48c0.94,0,1.76,0.16,2.44,0.48c0.68,0.32,1.22,0.77,1.62,1.33c0.42,0.57,0.67,1.22,0.77,1.96h-2.33
				c-0.1-0.59-0.39-1.05-0.85-1.35c-0.46-0.32-1.02-0.48-1.69-0.48c-0.7,0-1.29,0.17-1.77,0.5c-0.47,0.33-0.83,0.8-1.08,1.4
				c-0.25,0.58-0.38,1.27-0.38,2.06c0,0.78,0.12,1.47,0.38,2.08c0.25,0.6,0.61,1.06,1.08,1.4c0.48,0.33,1.07,0.5,1.77,0.5
				c0.67,0,1.23-0.16,1.69-0.48c0.46-0.33,0.74-0.83,0.85-1.5h2.33c-0.1,0.78-0.35,1.47-0.77,2.06c-0.41,0.58-0.95,1.04-1.62,1.35
				C59.28,61.69,58.46,61.85,57.52,61.85z"/>
		</g>
	</g>
</g>
<g>
	<g transform="translate(74.915657, 195.16512)">
		<g>
			<path d="M30.76,65.06h-4.69V53.68h4.5c1.39,0,2.39,0.31,3,0.94c0.47,0.46,0.71,1.1,0.71,1.92c0,0.64-0.16,1.19-0.46,1.65
				c-0.29,0.46-0.7,0.76-1.23,0.9c0.73,0.12,1.29,0.42,1.67,0.88c0.39,0.46,0.58,1.06,0.58,1.79c0,0.56-0.1,1.04-0.29,1.44
				c-0.18,0.41-0.42,0.73-0.71,0.98c-0.33,0.27-0.7,0.47-1.1,0.6c-0.41,0.12-0.78,0.21-1.12,0.25
				C31.27,65.04,30.98,65.06,30.76,65.06z M28.22,55.62v2.79h2.21c0.54,0,0.96-0.11,1.25-0.35c0.29-0.25,0.44-0.6,0.44-1.06
				c0-0.44-0.14-0.77-0.4-0.98c-0.32-0.26-0.86-0.4-1.62-0.4H28.22z M28.22,60.16v2.98h2.27c0.29,0,0.6-0.02,0.94-0.06
				c0.33-0.05,0.61-0.19,0.85-0.4c0.14-0.11,0.24-0.25,0.31-0.42c0.07-0.18,0.1-0.41,0.1-0.69c0-0.44-0.1-0.76-0.31-0.96
				c-0.21-0.19-0.47-0.32-0.77-0.38c-0.29-0.05-0.59-0.08-0.9-0.08H28.22z"/>
		</g>
	</g>
</g>
<g>
	<g transform="translate(82.17071, 195.16512)">
		<g>
			<path d="M33.55,65.26c-0.93,0-1.74-0.16-2.44-0.48c-0.7-0.32-1.27-0.75-1.73-1.29c-0.45-0.54-0.78-1.17-1-1.88
				c-0.22-0.72-0.33-1.47-0.33-2.25c0-0.79,0.11-1.54,0.33-2.25c0.22-0.71,0.55-1.33,1-1.88c0.46-0.55,1.03-0.98,1.73-1.29
				c0.69-0.32,1.51-0.48,2.44-0.48c0.94,0,1.76,0.16,2.46,0.48c0.69,0.31,1.27,0.74,1.73,1.29c0.46,0.54,0.8,1.17,1.02,1.88
				c0.22,0.71,0.33,1.46,0.33,2.25c0,0.78-0.11,1.53-0.33,2.25c-0.22,0.71-0.56,1.33-1.02,1.88c-0.46,0.54-1.04,0.97-1.73,1.29
				C35.31,65.1,34.5,65.26,33.55,65.26z M33.55,63.35c0.71,0,1.3-0.17,1.79-0.5c0.48-0.33,0.85-0.8,1.1-1.4
				c0.26-0.61,0.4-1.3,0.4-2.08c0-0.79-0.14-1.48-0.4-2.06c-0.25-0.59-0.62-1.06-1.1-1.4c-0.49-0.33-1.08-0.5-1.79-0.5
				c-0.68,0-1.27,0.17-1.77,0.5c-0.49,0.33-0.86,0.8-1.12,1.4c-0.25,0.58-0.38,1.27-0.38,2.06c0,0.78,0.12,1.47,0.38,2.08
				c0.26,0.6,0.64,1.06,1.12,1.4C32.28,63.18,32.87,63.35,33.55,63.35z"/>
		</g>
	</g>
</g>
<g>
	<g transform="translate(90.789586, 195.16512)">
		<g>
			<path d="M36.43,65.26c-0.93,0-1.74-0.16-2.44-0.48c-0.7-0.32-1.27-0.75-1.73-1.29c-0.45-0.54-0.78-1.17-1-1.88
				c-0.22-0.72-0.33-1.47-0.33-2.25c0-0.79,0.11-1.54,0.33-2.25c0.22-0.71,0.55-1.33,1-1.88c0.46-0.55,1.03-0.98,1.73-1.29
				c0.69-0.32,1.51-0.48,2.44-0.48c0.94,0,1.76,0.16,2.46,0.48c0.69,0.31,1.27,0.74,1.73,1.29c0.46,0.54,0.8,1.17,1.02,1.88
				c0.22,0.71,0.33,1.46,0.33,2.25c0,0.78-0.11,1.53-0.33,2.25c-0.22,0.71-0.56,1.33-1.02,1.88c-0.46,0.54-1.04,0.97-1.73,1.29
				C38.19,65.1,37.37,65.26,36.43,65.26z M36.43,63.35c0.71,0,1.3-0.17,1.79-0.5c0.48-0.33,0.85-0.8,1.1-1.4
				c0.26-0.61,0.4-1.3,0.4-2.08c0-0.79-0.14-1.48-0.4-2.06c-0.25-0.59-0.62-1.06-1.1-1.4c-0.49-0.33-1.08-0.5-1.79-0.5
				c-0.68,0-1.27,0.17-1.77,0.5c-0.49,0.33-0.86,0.8-1.12,1.4c-0.25,0.58-0.38,1.27-0.38,2.06c0,0.78,0.12,1.47,0.38,2.08
				c0.26,0.6,0.64,1.06,1.12,1.4C35.16,63.18,35.74,63.35,36.43,63.35z"/>
		</g>
	</g>
</g>
<g>
	<g transform="translate(99.408464, 195.16512)">
		<g>
			<path d="M36.38,65.06h-2.15V53.68h2.15v5.06l4-5.06h2.62l-4.54,5.5l4.69,5.88h-2.67l-4.1-5.27V65.06z"/>
		</g>
	</g>
</g>
<g>
	<g transform="translate(106.350512, 195.16512)">
	</g>
</g>
<g>
	<g transform="translate(108.798673, 195.16512)">
		<g>
			<path d="M41.87,65.26c-0.54,0-1.1-0.07-1.67-0.21c-0.56-0.12-1.07-0.33-1.54-0.62c-0.47-0.3-0.88-0.71-1.21-1.21
				c-0.32-0.5-0.52-1.11-0.58-1.85h2.23c0.12,0.53,0.32,0.95,0.6,1.25c0.29,0.31,0.62,0.52,1,0.65c0.39,0.11,0.78,0.17,1.19,0.17
				c0.58,0,1.07-0.12,1.46-0.38c0.4-0.25,0.6-0.65,0.6-1.19c0-0.4-0.14-0.71-0.4-0.92c-0.25-0.22-0.58-0.4-1-0.52
				c-0.41-0.12-0.85-0.23-1.33-0.33c-0.47-0.11-0.95-0.23-1.42-0.35c-0.46-0.14-0.89-0.32-1.27-0.54c-0.39-0.22-0.7-0.52-0.94-0.9
				c-0.24-0.39-0.35-0.88-0.35-1.48c0-0.73,0.17-1.34,0.52-1.83c0.36-0.5,0.84-0.88,1.44-1.12c0.61-0.26,1.3-0.4,2.06-0.4
				c0.73,0,1.42,0.14,2.06,0.4c0.65,0.27,1.2,0.66,1.65,1.19c0.44,0.52,0.73,1.19,0.85,2.02h-2.19c-0.14-0.61-0.43-1.05-0.88-1.33
				c-0.45-0.29-0.96-0.44-1.54-0.44c-0.54,0-0.99,0.12-1.33,0.35c-0.35,0.22-0.52,0.55-0.52,0.98c0,0.35,0.11,0.62,0.35,0.83
				c0.25,0.2,0.57,0.35,0.96,0.46c0.4,0.11,0.83,0.22,1.29,0.33c0.48,0.1,0.96,0.22,1.44,0.38c0.48,0.14,0.93,0.33,1.33,0.58
				c0.42,0.24,0.75,0.56,1,0.98c0.25,0.41,0.38,0.93,0.38,1.56c0,1.07-0.38,1.93-1.12,2.56C44.25,64.95,43.21,65.26,41.87,65.26z"/>
		</g>
	</g>
</g>
<g>
	<g transform="translate(116.031379, 195.16512)">
		<g>
			<path d="M41.92,65.06h-2.15V53.68h2.15V65.06z"/>
		</g>
	</g>
</g>
<g>
	<g transform="translate(118.613696, 195.16512)">
		<g>
			<path d="M45.74,65.26c-0.96,0-1.79-0.16-2.48-0.48c-0.7-0.32-1.27-0.76-1.73-1.31c-0.46-0.55-0.8-1.18-1.02-1.88
				c-0.21-0.71-0.31-1.45-0.31-2.23c0-0.78,0.1-1.51,0.31-2.21c0.22-0.71,0.56-1.34,1.02-1.9c0.46-0.55,1.03-0.99,1.73-1.31
				c0.69-0.32,1.52-0.48,2.48-0.48c1.47,0,2.64,0.35,3.5,1.06c0.88,0.7,1.42,1.6,1.65,2.71h-2.35c-0.18-0.58-0.51-1.03-0.98-1.35
				c-0.47-0.32-1.08-0.48-1.83-0.48c-0.72,0-1.33,0.18-1.81,0.52c-0.49,0.35-0.85,0.82-1.1,1.42c-0.25,0.6-0.38,1.27-0.38,2
				c0,0.77,0.12,1.45,0.38,2.06c0.26,0.6,0.65,1.07,1.17,1.42c0.53,0.35,1.17,0.52,1.94,0.52c0.9,0,1.61-0.22,2.15-0.67
				c0.53-0.46,0.8-1.14,0.81-2.04h-2.52v-1.77h4.65v6.19h-1.94v-1.27c-0.41,0.56-0.91,0.95-1.52,1.17
				C46.94,65.16,46.34,65.26,45.74,65.26z"/>
		</g>
	</g>
</g>
<g>
	<g transform="translate(127.221386, 195.16512)">
		<g>
			<path d="M45.65,65.06h-2.15V53.68h2.4l4.67,8.15v-8.15h2.15v11.38H50.3l-4.65-8.15V65.06z"/>
		</g>
	</g>
</g>
<g>
	<g transform="translate(135.113631, 195.16512)">
		<g>
			<path d="M48.28,65.06h-2.15V53.68h2.15V65.06z"/>
		</g>
	</g>
</g>
<g>
	<g transform="translate(137.695952, 195.16512)">
		<g>
			<path d="M49.15,65.06H47V53.68h2.4l4.67,8.15v-8.15h2.15v11.38h-2.42l-4.65-8.15V65.06z"/>
		</g>
	</g>
</g>
<g>
	<g transform="translate(145.5882, 195.16512)">
		<g>
			<path d="M54.73,65.26c-0.96,0-1.79-0.16-2.48-0.48c-0.7-0.32-1.27-0.76-1.73-1.31c-0.46-0.55-0.8-1.18-1.02-1.88
				c-0.21-0.71-0.31-1.45-0.31-2.23c0-0.78,0.1-1.51,0.31-2.21c0.22-0.71,0.56-1.34,1.02-1.9c0.46-0.55,1.03-0.99,1.73-1.31
				c0.69-0.32,1.52-0.48,2.48-0.48c1.47,0,2.64,0.35,3.5,1.06c0.88,0.7,1.42,1.6,1.65,2.71h-2.35c-0.18-0.58-0.51-1.03-0.98-1.35
				c-0.47-0.32-1.08-0.48-1.83-0.48c-0.72,0-1.33,0.18-1.81,0.52c-0.49,0.35-0.85,0.82-1.1,1.42c-0.25,0.6-0.38,1.27-0.38,2
				c0,0.77,0.12,1.45,0.38,2.06c0.26,0.6,0.65,1.07,1.17,1.42c0.53,0.35,1.17,0.52,1.94,0.52c0.9,0,1.61-0.22,2.15-0.67
				c0.53-0.46,0.8-1.14,0.81-2.04h-2.52v-1.77h4.65v6.19h-1.94v-1.27c-0.41,0.56-0.91,0.95-1.52,1.17
				C55.93,65.16,55.33,65.26,54.73,65.26z"/>
		</g>
	</g>
</g>
<g>
	<g transform="translate(74.915657, 205.4123)">
		<g>
			<path d="M28.22,68.47h-2.15V57.1h3.54l2.35,8.79l2.33-8.79h3.58v11.38h-2.15v-9.75l-2.71,9.75h-2.1l-2.71-9.69V68.47z"/>
		</g>
	</g>
</g>
<g>
	<g transform="translate(84.753016, 205.4123)">
		<g>
			<path d="M34.41,68.68c-0.93,0-1.74-0.16-2.44-0.48c-0.7-0.32-1.27-0.75-1.73-1.29c-0.45-0.54-0.78-1.17-1-1.88
				c-0.22-0.72-0.33-1.47-0.33-2.25c0-0.79,0.11-1.54,0.33-2.25c0.22-0.71,0.55-1.33,1-1.88c0.46-0.55,1.03-0.98,1.73-1.29
				c0.69-0.32,1.51-0.48,2.44-0.48c0.94,0,1.76,0.16,2.46,0.48c0.69,0.31,1.27,0.74,1.73,1.29c0.46,0.54,0.8,1.17,1.02,1.88
				c0.22,0.71,0.33,1.46,0.33,2.25c0,0.78-0.11,1.53-0.33,2.25c-0.22,0.71-0.56,1.33-1.02,1.88c-0.46,0.54-1.04,0.97-1.73,1.29
				C36.17,68.52,35.36,68.68,34.41,68.68z M34.41,66.76c0.71,0,1.3-0.17,1.79-0.5c0.48-0.33,0.85-0.8,1.1-1.4
				c0.26-0.61,0.4-1.3,0.4-2.08c0-0.79-0.14-1.48-0.4-2.06c-0.25-0.59-0.62-1.06-1.1-1.4c-0.49-0.33-1.08-0.5-1.79-0.5
				c-0.68,0-1.27,0.17-1.77,0.5c-0.49,0.33-0.86,0.8-1.12,1.4c-0.25,0.58-0.38,1.27-0.38,2.06c0,0.78,0.12,1.47,0.38,2.08
				c0.26,0.6,0.64,1.06,1.12,1.4C33.14,66.6,33.73,66.76,34.41,66.76z"/>
		</g>
	</g>
</g>
<g>
	<g transform="translate(93.371893, 205.4123)">
		<g>
			<path d="M34.37,68.47h-2.15V57.1h3.54l2.35,8.79l2.33-8.79h3.58v11.38h-2.15v-9.75l-2.71,9.75h-2.1l-2.71-9.69V68.47z"/>
		</g>
	</g>
</g>
<g>
	<g transform="translate(103.209253, 205.4123)">
		<g>
			<path d="M43.09,68.47H35.5V57.1h7.58v1.94h-5.44v2.79h4.85v1.92h-4.85v2.81h5.44V68.47z"/>
		</g>
	</g>
</g>
<g>
	<g transform="translate(109.603545, 205.4123)">
		<g>
			<path d="M39.78,68.47h-2.15V57.1h2.4l4.67,8.15V57.1h2.15v11.38h-2.42l-4.65-8.15V68.47z"/>
		</g>
	</g>
</g>
<g>
	<g transform="translate(117.49579, 205.4123)">
		<g>
			<path d="M45.02,68.47h-2.15v-9.44h-3.48V57.1h9.08v1.94h-3.46V68.47z"/>
		</g>
	</g>
</g>
<g>
	<g transform="translate(123.990692, 205.4123)">
		<g>
			<path d="M46.93,68.68c-0.54,0-1.1-0.07-1.67-0.21c-0.56-0.12-1.07-0.33-1.54-0.62c-0.47-0.3-0.88-0.71-1.21-1.21
				c-0.32-0.5-0.52-1.11-0.58-1.85h2.23c0.12,0.53,0.32,0.95,0.6,1.25c0.29,0.31,0.62,0.52,1,0.65c0.39,0.11,0.78,0.17,1.19,0.17
				c0.58,0,1.07-0.12,1.46-0.38c0.4-0.25,0.6-0.65,0.6-1.19c0-0.4-0.14-0.71-0.4-0.92c-0.25-0.22-0.58-0.4-1-0.52
				c-0.41-0.12-0.85-0.23-1.33-0.33c-0.47-0.11-0.95-0.23-1.42-0.35c-0.46-0.14-0.89-0.32-1.27-0.54c-0.39-0.22-0.7-0.52-0.94-0.9
				c-0.24-0.39-0.35-0.88-0.35-1.48c0-0.73,0.17-1.34,0.52-1.83c0.36-0.5,0.84-0.88,1.44-1.12c0.61-0.26,1.3-0.4,2.06-0.4
				c0.73,0,1.42,0.14,2.06,0.4c0.65,0.27,1.2,0.66,1.65,1.19c0.44,0.52,0.73,1.19,0.85,2.02H48.7c-0.14-0.61-0.43-1.05-0.88-1.33
				c-0.45-0.29-0.96-0.44-1.54-0.44c-0.54,0-0.99,0.12-1.33,0.35c-0.35,0.22-0.52,0.55-0.52,0.98c0,0.35,0.11,0.62,0.35,0.83
				c0.25,0.2,0.57,0.35,0.96,0.46c0.4,0.11,0.83,0.22,1.29,0.33c0.48,0.1,0.96,0.22,1.44,0.38c0.48,0.14,0.93,0.33,1.33,0.58
				c0.42,0.24,0.75,0.56,1,0.98c0.25,0.41,0.38,0.93,0.38,1.56c0,1.07-0.38,1.93-1.12,2.56C49.32,68.37,48.27,68.68,46.93,68.68z"/>
		</g>
	</g>
</g>
<g>
	<g transform="translate(74.915657, 225.90666)">
	</g>
</g>
<g>
	<g transform="translate(318.956757, 184.917941)">
		<g>
			<path d="M111.92,61.85c-0.54,0-1.1-0.07-1.67-0.21c-0.56-0.12-1.07-0.33-1.54-0.62c-0.47-0.3-0.88-0.71-1.21-1.21
				c-0.32-0.5-0.52-1.11-0.58-1.85h2.23c0.12,0.53,0.32,0.95,0.6,1.25c0.29,0.31,0.62,0.52,1,0.65c0.39,0.11,0.78,0.17,1.19,0.17
				c0.58,0,1.07-0.12,1.46-0.38c0.4-0.25,0.6-0.65,0.6-1.19c0-0.4-0.14-0.71-0.4-0.92c-0.25-0.22-0.58-0.4-1-0.52
				c-0.41-0.12-0.85-0.23-1.33-0.33c-0.47-0.11-0.95-0.23-1.42-0.35c-0.46-0.14-0.89-0.32-1.27-0.54c-0.39-0.22-0.7-0.52-0.94-0.9
				c-0.24-0.39-0.35-0.88-0.35-1.48c0-0.73,0.17-1.34,0.52-1.83c0.36-0.5,0.84-0.88,1.44-1.12c0.61-0.26,1.3-0.4,2.06-0.4
				c0.73,0,1.42,0.14,2.06,0.4c0.65,0.27,1.2,0.66,1.65,1.19c0.44,0.52,0.73,1.19,0.85,2.02h-2.19c-0.14-0.61-0.43-1.05-0.88-1.33
				c-0.45-0.29-0.96-0.44-1.54-0.44c-0.54,0-0.99,0.12-1.33,0.35c-0.35,0.22-0.52,0.55-0.52,0.98c0,0.35,0.11,0.62,0.35,0.83
				c0.25,0.2,0.57,0.35,0.96,0.46c0.4,0.11,0.83,0.22,1.29,0.33c0.48,0.1,0.96,0.22,1.44,0.38c0.48,0.14,0.93,0.33,1.33,0.58
				c0.42,0.24,0.75,0.56,1,0.98c0.25,0.41,0.38,0.93,0.38,1.56c0,1.07-0.38,1.93-1.12,2.56C114.31,61.54,113.26,61.85,111.92,61.85z
				"/>
		</g>
	</g>
</g>
<g>
	<g transform="translate(326.189464, 184.917941)">
		<g>
			<path d="M111.98,61.64h-2.15V50.26h2.15V61.64z"/>
		</g>
	</g>
</g>
<g>
	<g transform="translate(328.771783, 184.917941)">
		<g>
			<path d="M112.84,61.64h-2.15V50.26h2.4l4.67,8.15v-8.15h2.15v11.38h-2.42l-4.65-8.15V61.64z"/>
		</g>
	</g>
</g>
<g>
	<g transform="translate(336.664029, 184.917941)">
		<g>
			<path d="M118.38,61.85c-0.93,0-1.74-0.16-2.44-0.48c-0.7-0.32-1.27-0.75-1.73-1.29c-0.45-0.54-0.78-1.17-1-1.88
				c-0.22-0.72-0.33-1.47-0.33-2.25c0-0.79,0.11-1.54,0.33-2.25c0.22-0.71,0.55-1.33,1-1.88c0.46-0.55,1.03-0.98,1.73-1.29
				c0.69-0.32,1.51-0.48,2.44-0.48c0.94,0,1.76,0.16,2.44,0.48c0.68,0.32,1.22,0.77,1.62,1.33c0.42,0.57,0.67,1.22,0.77,1.96h-2.33
				c-0.1-0.59-0.39-1.05-0.85-1.35c-0.46-0.32-1.02-0.48-1.69-0.48c-0.7,0-1.29,0.17-1.77,0.5c-0.47,0.33-0.83,0.8-1.08,1.4
				c-0.25,0.58-0.38,1.27-0.38,2.06c0,0.78,0.12,1.47,0.38,2.08c0.25,0.6,0.61,1.06,1.08,1.4c0.48,0.33,1.07,0.5,1.77,0.5
				c0.67,0,1.23-0.16,1.69-0.48c0.46-0.33,0.74-0.83,0.85-1.5h2.33c-0.1,0.78-0.35,1.47-0.77,2.06c-0.41,0.58-0.95,1.04-1.62,1.35
				C120.14,61.69,119.33,61.85,118.38,61.85z"/>
		</g>
	</g>
</g>
<g>
	<g transform="translate(344.690431, 184.917941)">
		<g>
			<path d="M123.58,61.64H116V50.26h7.58v1.94h-5.44v2.79H123v1.92h-4.85v2.81h5.44V61.64z"/>
		</g>
	</g>
</g>
<g>
	<g transform="translate(351.095639, 184.917941)">
	</g>
</g>
<g>
	<g transform="translate(318.956757, 195.16512)">
		<g>
			<path d="M115.36,65.06h-8.15v-1.62l3.58-3.12c0.68-0.59,1.19-1.15,1.54-1.67c0.34-0.51,0.52-1.03,0.52-1.56
				c0-0.51-0.14-0.93-0.42-1.25c-0.27-0.33-0.7-0.5-1.29-0.5c-0.61,0-1.09,0.19-1.44,0.56c-0.35,0.38-0.54,0.97-0.58,1.79h-1.98
				c0.04-1.34,0.41-2.38,1.1-3.1c0.69-0.72,1.67-1.08,2.92-1.08c0.71,0,1.34,0.14,1.9,0.42c0.55,0.27,0.98,0.66,1.29,1.17
				c0.32,0.5,0.48,1.1,0.48,1.79c0,0.67-0.14,1.29-0.42,1.88c-0.28,0.57-0.62,1.09-1.04,1.56c-0.42,0.47-0.83,0.89-1.23,1.25
				l-1.75,1.58h4.96V65.06z"/>
		</g>
	</g>
</g>
<g>
	<g transform="translate(325.652881, 195.16512)">
		<g>
			<path d="M113.65,65.26c-0.86,0-1.6-0.2-2.23-0.6c-0.62-0.4-1.1-1.03-1.44-1.9c-0.33-0.88-0.5-2.02-0.5-3.44
				c0-1.39,0.17-2.51,0.5-3.35c0.33-0.86,0.8-1.49,1.42-1.9c0.61-0.4,1.34-0.6,2.19-0.6c0.86,0,1.6,0.2,2.23,0.6
				c0.62,0.41,1.1,1.04,1.44,1.92c0.33,0.86,0.5,2,0.5,3.42c0,1.38-0.17,2.5-0.5,3.38c-0.33,0.86-0.81,1.49-1.42,1.9
				C115.22,65.07,114.5,65.26,113.65,65.26z M113.61,63.35c0.39,0,0.73-0.11,1.04-0.35c0.3-0.23,0.54-0.64,0.71-1.21
				c0.17-0.58,0.25-1.38,0.25-2.4c0-1.03-0.09-1.82-0.27-2.4c-0.17-0.58-0.41-0.99-0.71-1.23c-0.31-0.23-0.66-0.35-1.06-0.35
				c-0.39,0-0.73,0.12-1.02,0.38c-0.29,0.24-0.52,0.64-0.69,1.21c-0.16,0.57-0.23,1.36-0.23,2.38c0,1.03,0.07,1.83,0.23,2.42
				c0.17,0.57,0.4,0.97,0.69,1.21C112.85,63.23,113.2,63.35,113.61,63.35z"/>
		</g>
	</g>
</g>
<g>
	<g transform="translate(332.594931, 195.16512)">
		<g>
			<path d="M115.97,65.26c-0.86,0-1.6-0.2-2.23-0.6c-0.62-0.4-1.1-1.03-1.44-1.9c-0.33-0.88-0.5-2.02-0.5-3.44
				c0-1.39,0.17-2.51,0.5-3.35c0.33-0.86,0.8-1.49,1.42-1.9c0.61-0.4,1.34-0.6,2.19-0.6c0.86,0,1.6,0.2,2.23,0.6
				c0.62,0.41,1.1,1.04,1.44,1.92c0.33,0.86,0.5,2,0.5,3.42c0,1.38-0.17,2.5-0.5,3.38c-0.33,0.86-0.81,1.49-1.42,1.9
				C117.54,65.07,116.81,65.26,115.97,65.26z M115.92,63.35c0.39,0,0.73-0.11,1.04-0.35c0.3-0.23,0.54-0.64,0.71-1.21
				c0.17-0.58,0.25-1.38,0.25-2.4c0-1.03-0.09-1.82-0.27-2.4c-0.17-0.58-0.41-0.99-0.71-1.23c-0.31-0.23-0.66-0.35-1.06-0.35
				c-0.39,0-0.73,0.12-1.02,0.38c-0.29,0.24-0.52,0.64-0.69,1.21c-0.16,0.57-0.23,1.36-0.23,2.38c0,1.03,0.07,1.83,0.23,2.42
				c0.17,0.57,0.4,0.97,0.69,1.21C115.16,63.23,115.52,63.35,115.92,63.35z"/>
		</g>
	</g>
</g>
<g>
	<g transform="translate(339.536979, 195.16512)">
		<g>
			<path d="M118.36,65.26c-1.38,0-2.44-0.48-3.19-1.46c-0.74-0.97-1.1-2.34-1.1-4.12c0-1.29,0.17-2.4,0.5-3.31
				c0.33-0.93,0.82-1.65,1.46-2.15c0.65-0.5,1.45-0.75,2.4-0.75c1.11,0,2,0.31,2.67,0.92c0.67,0.61,1.06,1.44,1.19,2.48h-1.92
				c-0.24-1.03-0.89-1.54-1.94-1.54c-0.85,0-1.45,0.31-1.81,0.94c-0.36,0.61-0.54,1.45-0.54,2.5c0.38-0.5,0.79-0.82,1.25-0.98
				c0.46-0.17,0.9-0.25,1.31-0.25c0.72,0,1.35,0.16,1.9,0.46c0.55,0.31,0.98,0.74,1.29,1.29c0.3,0.56,0.46,1.22,0.46,1.98
				c0,0.78-0.17,1.47-0.5,2.08c-0.33,0.6-0.8,1.07-1.4,1.42C119.8,65.1,119.12,65.26,118.36,65.26z M118.34,63.43
				c0.58,0,1.03-0.2,1.33-0.6c0.3-0.42,0.46-0.93,0.46-1.54c0-0.61-0.16-1.1-0.48-1.48c-0.31-0.39-0.74-0.58-1.31-0.58
				c-0.61,0-1.1,0.2-1.46,0.58c-0.35,0.38-0.52,0.87-0.52,1.48c0,0.62,0.17,1.14,0.52,1.54C117.24,63.23,117.73,63.43,118.34,63.43z
				"/>
		</g>
	</g>
</g>
<g>
	<g transform="translate(553.684778, 183.476671)">
		<g>
			<path d="M187.81,61.16h-2.15V49.78h3.54l2.35,8.79l2.33-8.79h3.58v11.38h-2.15v-9.75l-2.71,9.75h-2.1l-2.71-9.69V61.16z"/>
		</g>
	</g>
</g>
<g>
	<g transform="translate(563.522137, 183.476671)">
		<g>
			<path d="M194,61.37c-0.93,0-1.74-0.16-2.44-0.48c-0.7-0.32-1.27-0.75-1.73-1.29c-0.45-0.54-0.78-1.17-1-1.88
				c-0.22-0.72-0.33-1.47-0.33-2.25c0-0.79,0.11-1.54,0.33-2.25c0.22-0.71,0.55-1.33,1-1.88c0.46-0.55,1.03-0.98,1.73-1.29
				c0.69-0.32,1.51-0.48,2.44-0.48c0.94,0,1.76,0.16,2.46,0.48c0.69,0.31,1.27,0.74,1.73,1.29c0.46,0.54,0.8,1.17,1.02,1.88
				c0.22,0.71,0.33,1.46,0.33,2.25c0,0.78-0.11,1.53-0.33,2.25c-0.22,0.71-0.56,1.33-1.02,1.88c-0.46,0.54-1.04,0.97-1.73,1.29
				C195.76,61.21,194.95,61.37,194,61.37z M194,59.45c0.71,0,1.3-0.17,1.79-0.5c0.48-0.33,0.85-0.8,1.1-1.4
				c0.26-0.61,0.4-1.3,0.4-2.08c0-0.79-0.14-1.48-0.4-2.06c-0.25-0.59-0.62-1.06-1.1-1.4c-0.49-0.33-1.08-0.5-1.79-0.5
				c-0.68,0-1.27,0.17-1.77,0.5c-0.49,0.33-0.86,0.8-1.12,1.4c-0.25,0.58-0.38,1.27-0.38,2.06c0,0.78,0.12,1.47,0.38,2.08
				c0.26,0.6,0.64,1.06,1.12,1.4C192.73,59.28,193.32,59.45,194,59.45z"/>
		</g>
	</g>
</g>
<g>
	<g transform="translate(572.141014, 183.476671)">
		<g>
			<path d="M196.31,61.37c-0.54,0-1.1-0.07-1.67-0.21c-0.56-0.12-1.07-0.33-1.54-0.62c-0.47-0.3-0.88-0.71-1.21-1.21
				c-0.32-0.5-0.52-1.11-0.58-1.85h2.23c0.12,0.53,0.32,0.95,0.6,1.25c0.29,0.31,0.62,0.52,1,0.65c0.39,0.11,0.78,0.17,1.19,0.17
				c0.58,0,1.07-0.12,1.46-0.38c0.4-0.25,0.6-0.65,0.6-1.19c0-0.4-0.14-0.71-0.4-0.92c-0.25-0.22-0.58-0.4-1-0.52
				c-0.41-0.12-0.85-0.23-1.33-0.33c-0.47-0.11-0.95-0.23-1.42-0.35c-0.46-0.14-0.89-0.32-1.27-0.54c-0.39-0.22-0.7-0.52-0.94-0.9
				c-0.24-0.39-0.35-0.88-0.35-1.48c0-0.73,0.17-1.34,0.52-1.83c0.36-0.5,0.84-0.88,1.44-1.12c0.61-0.26,1.3-0.4,2.06-0.4
				c0.73,0,1.42,0.14,2.06,0.4c0.65,0.27,1.2,0.66,1.65,1.19c0.44,0.52,0.73,1.19,0.85,2.02h-2.19c-0.14-0.61-0.43-1.05-0.88-1.33
				c-0.45-0.29-0.96-0.44-1.54-0.44c-0.54,0-0.99,0.12-1.33,0.35c-0.35,0.22-0.52,0.55-0.52,0.98c0,0.35,0.11,0.62,0.35,0.83
				c0.25,0.2,0.57,0.35,0.96,0.46c0.4,0.11,0.83,0.22,1.29,0.33c0.48,0.1,0.96,0.22,1.44,0.38c0.48,0.14,0.93,0.33,1.33,0.58
				c0.42,0.24,0.75,0.56,1,0.98c0.25,0.41,0.38,0.93,0.38,1.56c0,1.07-0.38,1.93-1.12,2.56C198.7,61.05,197.66,61.37,196.31,61.37z"
				/>
		</g>
	</g>
</g>
<g>
	<g transform="translate(579.373722, 183.476671)">
		<g>
			<path d="M198.98,61.16h-2.15v-9.44h-3.48v-1.94h9.08v1.94h-3.46V61.16z"/>
		</g>
	</g>
</g>
<g>
	<g transform="translate(585.868624, 183.476671)">
		<g>
			<path d="M203.35,61.16h-6.96V49.78h2.15v9.46h4.81V61.16z"/>
		</g>
	</g>
</g>
<g>
	<g transform="translate(591.424502, 183.476671)">
		<g>
			<path d="M203.58,61.16h-2.25V56.7l-4.15-6.92h2.5l2.75,4.83l2.77-4.83h2.5l-4.12,6.92V61.16z"/>
		</g>
	</g>
</g>
<g>
	<g transform="translate(553.684778, 193.723851)">
		<g>
			<path d="M192.62,64.57h-6.96V53.2h2.15v9.46h4.81V64.57z"/>
		</g>
	</g>
</g>
<g>
	<g transform="translate(559.240657, 193.723851)">
		<g>
			<path d="M192.58,64.78c-0.93,0-1.74-0.16-2.44-0.48c-0.7-0.32-1.27-0.75-1.73-1.29c-0.45-0.54-0.78-1.17-1-1.88
				c-0.22-0.72-0.33-1.47-0.33-2.25c0-0.79,0.11-1.54,0.33-2.25c0.22-0.71,0.55-1.33,1-1.88c0.46-0.55,1.03-0.98,1.73-1.29
				c0.69-0.32,1.51-0.48,2.44-0.48c0.94,0,1.76,0.16,2.46,0.48c0.69,0.31,1.27,0.74,1.73,1.29c0.46,0.54,0.8,1.17,1.02,1.88
				c0.22,0.71,0.33,1.46,0.33,2.25c0,0.78-0.11,1.53-0.33,2.25c-0.22,0.71-0.56,1.33-1.02,1.88c-0.46,0.54-1.04,0.97-1.73,1.29
				C194.34,64.62,193.52,64.78,192.58,64.78z M192.58,62.87c0.71,0,1.3-0.17,1.79-0.5c0.48-0.33,0.85-0.8,1.1-1.4
				c0.26-0.61,0.4-1.3,0.4-2.08c0-0.79-0.14-1.48-0.4-2.06c-0.25-0.59-0.62-1.06-1.1-1.4c-0.49-0.33-1.08-0.5-1.79-0.5
				c-0.68,0-1.27,0.17-1.77,0.5c-0.49,0.33-0.86,0.8-1.12,1.4c-0.25,0.58-0.38,1.27-0.38,2.06c0,0.78,0.12,1.47,0.38,2.08
				c0.26,0.6,0.64,1.06,1.12,1.4C191.31,62.7,191.89,62.87,192.58,62.87z"/>
		</g>
	</g>
</g>
<g>
	<g transform="translate(567.859534, 193.723851)">
		<g>
			<path d="M192.53,64.57h-2.15V53.2h2.4l4.67,8.15V53.2h2.15v11.38h-2.42l-4.65-8.15V64.57z"/>
		</g>
	</g>
</g>
<g>
	<g transform="translate(575.75178, 193.723851)">
		<g>
			<path d="M196.31,64.57h-3.29V53.2h3.29c1.93,0,3.4,0.49,4.42,1.48c1.03,0.99,1.54,2.4,1.54,4.23c0,1.81-0.52,3.2-1.54,4.19
				C199.7,64.09,198.23,64.57,196.31,64.57z M195.16,55.14v7.52h1.12c0.75,0,1.41-0.11,1.98-0.35c0.58-0.23,1.03-0.62,1.35-1.17
				c0.33-0.55,0.5-1.3,0.5-2.23c0-0.89-0.16-1.6-0.48-2.15c-0.32-0.55-0.77-0.96-1.33-1.23c-0.57-0.26-1.24-0.4-2-0.4H195.16z"/>
		</g>
	</g>
</g>
<g>
	<g transform="translate(583.342209, 193.723851)">
		<g>
			<path d="M200.61,64.78c-0.93,0-1.74-0.16-2.44-0.48c-0.7-0.32-1.27-0.75-1.73-1.29c-0.45-0.54-0.78-1.17-1-1.88
				c-0.22-0.72-0.33-1.47-0.33-2.25c0-0.79,0.11-1.54,0.33-2.25c0.22-0.71,0.55-1.33,1-1.88c0.46-0.55,1.03-0.98,1.73-1.29
				c0.69-0.32,1.51-0.48,2.44-0.48c0.94,0,1.76,0.16,2.46,0.48c0.69,0.31,1.27,0.74,1.73,1.29c0.46,0.54,0.8,1.17,1.02,1.88
				c0.22,0.71,0.33,1.46,0.33,2.25c0,0.78-0.11,1.53-0.33,2.25c-0.22,0.71-0.56,1.33-1.02,1.88c-0.46,0.54-1.04,0.97-1.73,1.29
				C202.37,64.62,201.55,64.78,200.61,64.78z M200.61,62.87c0.71,0,1.3-0.17,1.79-0.5c0.48-0.33,0.85-0.8,1.1-1.4
				c0.26-0.61,0.4-1.3,0.4-2.08c0-0.79-0.14-1.48-0.4-2.06c-0.25-0.59-0.62-1.06-1.1-1.4c-0.49-0.33-1.08-0.5-1.79-0.5
				c-0.68,0-1.27,0.17-1.77,0.5c-0.49,0.33-0.86,0.8-1.12,1.4c-0.25,0.58-0.38,1.27-0.38,2.06c0,0.78,0.12,1.47,0.38,2.08
				c0.26,0.6,0.64,1.06,1.12,1.4C199.34,62.7,199.93,62.87,200.61,62.87z"/>
		</g>
	</g>
</g>
<g>
	<g transform="translate(591.961085, 193.723851)">
		<g>
			<path d="M200.57,64.57h-2.15V53.2h2.4l4.67,8.15V53.2h2.15v11.38h-2.42l-4.65-8.15V64.57z"/>
		</g>
	</g>
</g>
</svg>
