<?xml version="1.0" encoding="UTF-8"?>
<svg id="Layer_1" xmlns="http://www.w3.org/2000/svg" version="1.1" viewBox="0 0 498.35 45">
  <!-- Generator: Adobe Illustrator 29.5.0, SVG Export Plug-In . SVG Version: 2.1.0 Build 137)  -->
  <defs>
    <style>
      .st0 {
        font-family: Inconsolata-BoldForPowerline, 'Inconsolata for Powerline';
        font-size: 40px;
        font-weight: 700;
      }
    </style>
  </defs>
  <path d="M83.37-54.68v-40.74h18.03c4.99,0,8.67.97,11.04,2.9,2.37,1.93,3.56,4.67,3.56,8.21,0,2.18-.67,4.12-2,5.8-1.33,1.69-3.28,2.76-5.86,3.21v.06c2.87.41,5.07,1.48,6.61,3.21,1.54,1.73,2.31,3.79,2.31,6.17,0,3.5-1.29,6.23-3.87,8.21-2.54,1.98-6.26,2.96-11.16,2.96h-18.65ZM91.73-78.33h8.55c4.53,0,6.8-1.75,6.8-5.25s-2.27-5.25-6.8-5.25h-8.55v10.49ZM91.73-61.1h9.54c2.29,0,3.99-.45,5.11-1.36,1.16-.95,1.75-2.28,1.75-4.01s-.58-2.98-1.75-3.89c-1.12-.95-2.83-1.42-5.11-1.42h-9.54v10.68Z"/>
  <path d="M138.62-86.17c3.12,0,5.88.64,8.3,1.91,2.41,1.28,4.28,3.11,5.61,5.49,1.37,2.39,2.06,5.27,2.06,8.64s-.69,6.26-2.06,8.64c-1.33,2.39-3.2,4.22-5.61,5.49-2.41,1.28-5.18,1.91-8.3,1.91s-5.95-.64-8.36-1.91c-2.37-1.28-4.24-3.11-5.61-5.49-1.33-2.39-2-5.27-2-8.64s.67-6.26,2-8.64c1.37-2.39,3.24-4.22,5.61-5.49,2.41-1.28,5.2-1.91,8.36-1.91ZM138.62-79.87c-2.33,0-4.16.82-5.49,2.47-1.29,1.6-1.93,4.03-1.93,7.28s.64,5.7,1.93,7.35c1.33,1.6,3.16,2.41,5.49,2.41s4.08-.8,5.36-2.41c1.33-1.65,2-4.09,2-7.35s-.67-5.68-2-7.28c-1.29-1.65-3.08-2.47-5.36-2.47Z"/>
  <path d="M175.96-86.17c3.12,0,5.88.64,8.3,1.91,2.41,1.28,4.28,3.11,5.61,5.49,1.37,2.39,2.06,5.27,2.06,8.64s-.69,6.26-2.06,8.64c-1.33,2.39-3.2,4.22-5.61,5.49-2.41,1.28-5.18,1.91-8.3,1.91s-5.95-.64-8.36-1.91c-2.37-1.28-4.24-3.11-5.61-5.49-1.33-2.39-2-5.27-2-8.64s.67-6.26,2-8.64c1.37-2.39,3.24-4.22,5.61-5.49,2.41-1.28,5.2-1.91,8.36-1.91ZM175.96-79.87c-2.33,0-4.16.82-5.49,2.47-1.29,1.6-1.93,4.03-1.93,7.28s.64,5.7,1.93,7.35c1.33,1.6,3.16,2.41,5.49,2.41s4.08-.8,5.36-2.41c1.33-1.65,2-4.09,2-7.35s-.67-5.68-2-7.28c-1.29-1.65-3.08-2.47-5.36-2.47Z"/>
  <path d="M207.62-99.07v27.59l13.47-14.07h9.73l-11.73,12.1,12.47,18.77h-9.67l-8.61-13.64-5.68,5.99v7.65h-8.54v-44.38h8.54Z"/>
  <path d="M290.74-65.92c-1.25,3.99-3.43,6.98-6.55,8.95-3.12,1.93-6.76,2.9-10.91,2.9s-7.61-.84-10.6-2.53c-2.95-1.69-5.24-4.09-6.86-7.22-1.58-3.13-2.37-6.87-2.37-11.23s.81-8.11,2.43-11.23c1.62-3.13,3.91-5.53,6.86-7.22,2.95-1.69,6.42-2.53,10.42-2.53,4.2,0,7.8.88,10.79,2.65,3.04,1.73,5.11,4.36,6.24,7.9l-7.8,3.27c-.71-2.47-1.79-4.22-3.24-5.25-1.45-1.07-3.33-1.6-5.61-1.6-3.41,0-6.13,1.21-8.17,3.64-2,2.39-2.99,5.84-2.99,10.37s.96,7.94,2.87,10.37c1.91,2.43,4.68,3.64,8.29,3.64,2.25,0,4.18-.6,5.8-1.79,1.66-1.19,2.83-3,3.49-5.43l7.92,2.35Z"/>
  <path d="M305.63-99.07v34.88c0,1.44.25,2.45.75,3.02.5.58,1.33.86,2.5.86.71,0,1.29-.04,1.75-.12.46-.08,1.04-.25,1.75-.49l-.75,5.56c-.71.41-1.6.72-2.68.93-1.04.25-2.08.37-3.12.37-3.04,0-5.26-.72-6.67-2.16-1.37-1.48-2.06-3.83-2.06-7.04v-35.8h8.54Z"/>
  <path d="M327.98-54.07c-2.08,0-3.95-.37-5.61-1.11-1.66-.74-2.99-1.91-3.99-3.52-.96-1.6-1.43-3.72-1.43-6.36v-20.49h8.54v18.46c0,2.39.5,4.05,1.5,5,1,.91,2.43,1.36,4.3,1.36s3.37-.64,4.74-1.91c1.41-1.32,2.12-3.42,2.12-6.3v-16.61h8.54v30.86h-7.61l-.31-5.37c-1.04,2.02-2.47,3.52-4.3,4.51-1.83.99-3.99,1.48-6.49,1.48Z"/>
  <path d="M374.02-54.07c-2.49,0-4.66-.64-6.49-1.91-1.79-1.32-3.12-3.02-3.99-5.12l-.31,6.42h-7.55v-44.38h8.55v18.77c.91-1.73,2.2-3.13,3.87-4.2,1.71-1.11,3.76-1.67,6.18-1.67s4.72.64,6.67,1.91c2,1.28,3.56,3.13,4.68,5.56,1.16,2.39,1.75,5.27,1.75,8.64s-.58,6.26-1.75,8.64c-1.12,2.35-2.7,4.16-4.74,5.43-2,1.28-4.28,1.91-6.86,1.91ZM371.46-60.55c2.33,0,4.14-.8,5.43-2.41,1.29-1.65,1.93-4.03,1.93-7.16s-.64-5.49-1.93-7.1c-1.29-1.65-3.08-2.47-5.36-2.47s-3.97.88-5.3,2.65c-1.33,1.73-2,4.05-2,6.98s.67,5.35,2,7.04c1.33,1.65,3.08,2.47,5.24,2.47Z"/>
  <path d="M182.37-64.57c0,2.49-2.01,4.5-4.5,4.5s-4.5-2.01-4.5-4.5,2.01-4.5,4.5-4.5,4.5,2.01,4.5,4.5Z"/>
  <path d="M145.37-65.07c0,2.21-1.79,4-4,4s-4-1.79-4-4,1.79-4,4-4,4,1.79,4,4Z"/>
  <text class="st0" transform="translate(5.48 33.33)"><tspan x="0" y="0">The Autographed Bookworm </tspan></text>
</svg>